<svg width="75" height="26" viewBox="0 0 75 26" fill="none" xmlns="http://www.w3.org/2000/svg">
<g clip-path="url(#clip0_3679_16770)">
<path d="M8.76208 5.34707C8.76208 5.79152 8.99205 6.21215 9.45193 6.60899C9.92769 7.00584 10.5145 7.40262 11.2122 7.79947C11.91 8.19631 12.6633 8.60899 13.4721 9.03756C14.2809 9.45024 15.0342 9.9106 15.732 10.4185C16.4297 10.9264 17.0086 11.4979 17.4685 12.1328C17.9443 12.7677 18.1821 13.482 18.1821 14.2757C18.1821 14.863 17.968 15.4899 17.5399 16.1566C17.1117 16.8074 16.4932 17.4106 15.6844 17.9661C14.8756 18.5217 13.9003 18.982 12.7585 19.3471C11.6166 19.7121 10.3321 19.8947 8.90481 19.8947C7.47753 19.8947 6.26434 19.7836 5.26524 19.5614C4.26614 19.355 3.44942 19.0773 2.81508 18.728C2.18073 18.363 1.7129 17.9582 1.41158 17.5138C1.12613 17.0535 0.983398 16.5773 0.983398 16.0852C0.983398 15.5931 1.12613 15.1011 1.41158 14.609C1.69704 14.1169 2.02214 13.6645 2.38689 13.2518C2.79921 12.7757 3.26705 12.3233 3.79038 11.8947L4.00448 12.109C3.92518 12.1883 3.81417 12.3074 3.67144 12.4661C3.54458 12.6249 3.40978 12.8154 3.26705 13.0376C3.14018 13.2439 3.02124 13.482 2.91023 13.7518C2.81508 14.0058 2.7675 14.2677 2.7675 14.5376C2.7675 14.9661 2.88644 15.3868 3.12432 15.7995C3.37806 16.2121 3.7666 16.5852 4.28993 16.9185C4.81327 17.2518 5.47933 17.5217 6.28813 17.728C7.1128 17.9185 8.09602 18.0138 9.23784 18.0138C10.1101 18.0138 10.9665 17.9741 11.8069 17.8947C12.6633 17.7995 13.4324 17.6725 14.1144 17.5138C14.7963 17.3392 15.3435 17.1407 15.7558 16.9185C16.1839 16.6804 16.398 16.4264 16.398 16.1566C16.398 15.2677 16.1602 14.4899 15.6844 13.8233C15.2245 13.1407 14.6456 12.5296 13.9479 11.9899C13.2501 11.4502 12.4968 10.974 11.688 10.5614C10.8792 10.1328 10.1259 9.72804 9.42814 9.34709C8.73038 8.95024 8.14359 8.56929 7.66783 8.20423C7.20795 7.82328 6.97798 7.41852 6.97798 6.98994C6.97798 6.3709 7.20795 5.70422 7.66783 4.98993C8.14359 4.25978 8.73829 3.57724 9.45193 2.94231C10.1656 2.3074 10.9427 1.78359 11.7832 1.37088C12.6236 0.942313 13.4245 0.728027 14.1857 0.728027C14.6932 0.728027 15.1373 0.799456 15.5179 0.942313C15.8985 1.08517 16.2077 1.26771 16.4456 1.48993C16.6994 1.71216 16.8817 1.97406 16.9927 2.27565C17.1196 2.56136 17.183 2.84707 17.183 3.13279C17.183 3.482 17.08 3.81533 16.8738 4.13279C16.6676 4.45025 16.4377 4.72803 16.1839 4.96612C15.8985 5.25184 15.5734 5.51374 15.2086 5.75184L14.947 5.58517C15.2324 5.29946 15.391 4.982 15.4227 4.63279C15.4544 4.28359 15.3672 3.95819 15.1611 3.6566C14.9708 3.35502 14.6615 3.10104 14.2333 2.89469C13.821 2.68835 13.3215 2.58517 12.7347 2.58517C12.1003 2.58517 11.5374 2.66454 11.0457 2.82327C10.5541 2.96612 10.1339 3.16454 9.78496 3.4185C9.45193 3.67247 9.19817 3.96612 9.02375 4.29946C8.84932 4.63279 8.76208 4.982 8.76208 5.34707ZM10.6651 21.4185L12.2827 23.0138L10.6651 24.6328L9.07132 23.0138L10.6651 21.4185ZM7.45374 21.4185L9.07132 23.0138L7.45374 24.6328L5.83615 23.0138L7.45374 21.4185Z" fill="#1FA36C"/>
<path d="M27.4753 18.4423C27.063 18.8549 26.5555 19.0613 25.9529 19.0613H24.0499C23.4948 19.0613 23.027 18.974 22.6464 18.7994C22.2816 18.6248 21.9882 18.3867 21.7662 18.0851C21.5441 17.7835 21.3856 17.4423 21.2904 17.0613C21.1953 16.6645 21.1477 16.2518 21.1477 15.8232V12.5375C21.1477 12.1407 21.1318 11.8073 21.1001 11.5375C21.0525 11.2677 20.9653 11.0534 20.8384 10.8946C20.6957 10.7201 20.5054 10.601 20.2676 10.5375C20.0138 10.474 19.6728 10.4423 19.2446 10.4423H18.5786L20.3627 8.65655H21.1001C21.4014 8.65655 21.6631 8.68036 21.8851 8.72798C22.1071 8.75971 22.2975 8.84703 22.4561 8.98989C22.6146 9.13274 22.7335 9.33114 22.8128 9.58512C22.8922 9.83911 22.9318 10.1804 22.9318 10.6089V14.2756C22.9318 14.6883 22.9476 15.0772 22.9794 15.4423C23.027 15.7915 23.13 16.1089 23.2886 16.3946C23.4472 16.6645 23.6851 16.8788 24.0022 17.0375C24.3353 17.1963 24.7952 17.2756 25.3819 17.2756H28.6172L27.4753 18.4423ZM22.0517 7.18036L20.434 5.58511L22.0517 3.96606L23.6455 5.58511L22.0517 7.18036Z" fill="#1FA36C"/>
<path d="M40.8903 14.2519C40.8903 14.6646 40.9061 15.0535 40.9379 15.4186C40.9854 15.7837 41.0885 16.1012 41.2471 16.371C41.4057 16.6408 41.6515 16.8631 41.9845 17.0376C42.3176 17.1964 42.7695 17.2757 43.3404 17.2757H46.5994L45.4338 18.4424C45.0214 18.8551 44.5219 19.0615 43.9351 19.0615H42.0321C41.0806 19.0615 40.3907 18.8313 39.9625 18.371C39.5344 17.8948 39.2647 17.3154 39.1538 16.6329C38.5353 17.3948 37.885 18.0297 37.2031 18.5376C36.5212 19.0456 35.8472 19.2996 35.1812 19.2996C34.9115 19.2996 34.6816 19.2281 34.4913 19.0853C34.3168 18.9424 34.1662 18.7519 34.0393 18.5138C33.9124 18.2757 33.8173 17.9979 33.7539 17.6805C33.6904 17.3631 33.6508 17.0297 33.6349 16.6805C33.0164 17.4424 32.3662 18.0694 31.6843 18.5615C31.0183 19.0535 30.3601 19.2996 29.7099 19.2996C29.4245 19.2996 29.1786 19.2202 28.9725 19.0615C28.7822 18.8869 28.6236 18.6646 28.4967 18.3948C28.3698 18.125 28.2747 17.8154 28.2113 17.4662C28.1637 17.117 28.1399 16.7598 28.1399 16.3948V12.5376C28.1399 12.1408 28.124 11.8075 28.0923 11.5376C28.0448 11.2519 27.9575 11.0297 27.8307 10.871C27.6879 10.7122 27.4976 10.6012 27.2598 10.5376C27.006 10.4583 26.665 10.4186 26.2369 10.4186H25.5708L27.3549 8.63288H28.1161C28.4016 8.63288 28.6553 8.65669 28.8773 8.70431C29.1152 8.73604 29.3055 8.82336 29.4482 8.96622C29.6068 9.10907 29.7257 9.30747 29.8051 9.56145C29.8843 9.81544 29.924 10.1567 29.924 10.5853V15.2757C29.924 16.0376 30.0271 16.617 30.2333 17.0138C30.4553 17.4107 30.8121 17.6091 31.3037 17.6091C31.6367 17.6091 32.0174 17.4741 32.4455 17.2043C32.8737 16.9186 33.2701 16.49 33.6349 15.9186V9.53764C33.6349 8.93449 33.8411 8.42651 34.2534 8.01383L35.419 6.84717V15.2757C35.419 16.0376 35.5221 16.617 35.7283 17.0138C35.9344 17.4107 36.2912 17.6091 36.7987 17.6091C37.1159 17.6091 37.4886 17.4741 37.9168 17.2043C38.345 16.9186 38.7414 16.49 39.1062 15.9186V15.8234V9.53764C39.1062 9.25193 39.1617 8.98211 39.2727 8.72812C39.3837 8.4583 39.5344 8.2202 39.7247 8.01383L40.8903 6.84717V14.2519Z" fill="#1FA36C"/>
<path d="M54.2432 14.2756C54.2432 14.6883 54.2591 15.0772 54.2908 15.4422C54.3384 15.7915 54.4414 16.1089 54.6001 16.3946C54.7587 16.6644 54.9965 16.8787 55.3137 17.0375C55.6467 17.1962 56.1066 17.2756 56.6934 17.2756H59.9286L58.7867 18.4422C58.3744 18.8549 57.8669 19.0613 57.2643 19.0613H55.3613C54.8538 19.0613 54.4256 18.9899 54.0767 18.847C53.7278 18.7041 53.4344 18.5058 53.1966 18.2518C52.9746 17.9978 52.808 17.7121 52.697 17.3946C52.586 17.0613 52.5146 16.7041 52.4829 16.3232C52.1975 16.6565 51.8882 16.9978 51.5552 17.347C51.238 17.6962 50.897 18.0137 50.5323 18.2994C50.1676 18.5851 49.779 18.8232 49.3667 19.0137C48.9702 19.1883 48.542 19.2756 48.0821 19.2756C47.3526 19.2756 46.7659 19.0216 46.3218 18.5137C45.8778 18.0058 45.6558 17.3867 45.6558 16.6565C45.6558 15.7518 45.854 14.8867 46.2505 14.0613C46.6628 13.22 47.1861 12.4581 47.8205 11.7756C48.4707 11.093 49.2002 10.5058 50.009 10.0137C50.8336 9.52159 51.6503 9.15653 52.4591 8.91843V8.68034C52.4591 8.39462 52.5146 8.1248 52.6256 7.87081C52.7367 7.60099 52.8873 7.37081 53.0776 7.18034L54.2432 6.01367V14.2756ZM52.4591 10.4422H52.0309C51.4759 10.4422 50.9208 10.5375 50.3658 10.728C49.8266 10.9025 49.335 11.1803 48.8909 11.5613C48.4469 11.9264 48.09 12.4025 47.8205 12.9899C47.5509 13.5613 47.4161 14.2439 47.4161 15.0375C47.4161 15.7359 47.5747 16.3153 47.8918 16.7756C48.209 17.22 48.7006 17.4422 49.3667 17.4422C49.9217 17.4422 50.4451 17.3073 50.9367 17.0375C51.4442 16.7518 51.9517 16.347 52.4591 15.8232V11.8946V10.4422Z" fill="#1FA36C"/>
<path d="M66.2221 14.2756C66.2221 14.6883 66.2382 15.0772 66.2697 15.4422C66.3173 15.7915 66.4202 16.1089 66.579 16.3946C66.7377 16.6644 66.9834 16.8787 67.3164 17.0375C67.6494 17.1962 68.1014 17.2756 68.6723 17.2756H73.7392L72.5735 18.4422C72.3832 18.6486 72.1531 18.8073 71.8837 18.9184C71.6298 19.0137 71.3604 19.0613 71.0749 19.0613H67.3402C66.7853 19.0613 66.3173 18.974 65.9367 18.7994C65.5721 18.6248 65.2784 18.3867 65.0565 18.0851C64.8347 17.7835 64.6759 17.4422 64.5808 17.0613C64.4856 16.6644 64.438 16.2518 64.438 15.8232V15.7994C64.438 15.4025 64.4143 15.093 64.3667 14.8708C64.3352 14.6327 64.2477 14.4581 64.105 14.347C63.9783 14.2359 63.788 14.1724 63.5341 14.1565C63.2962 14.1248 62.9632 14.1089 62.535 14.1089H60.7509V18.1803C60.7509 18.7677 60.5445 19.2677 60.1324 19.6803L58.9668 20.847V4.77556C58.9668 4.22001 59.054 3.71207 59.2285 3.25175C59.4188 2.79144 59.6408 2.38668 59.8945 2.03747C60.1641 1.67239 60.4337 1.3708 60.7033 1.13271C60.9888 0.878742 61.2267 0.688266 61.417 0.561279L61.5835 0.751754C61.298 1.08509 61.0839 1.56922 60.9412 2.20413C60.8145 2.82318 60.7509 3.52953 60.7509 4.32318V13.2994L64.2239 9.847C64.6837 9.3867 65.088 9.07718 65.4371 8.91843C65.8017 8.74385 66.2221 8.65653 66.6979 8.65653H69.0767L67.2926 10.4422H65.6988C65.3658 10.4422 65.0803 10.466 64.8424 10.5137C64.6206 10.5454 64.4143 10.6089 64.2239 10.7041C64.0336 10.7994 63.8433 10.9263 63.653 11.0851C63.4627 11.2438 63.2486 11.4422 63.0108 11.6803L62.3447 12.3232H64.3905C64.692 12.3232 64.9536 12.347 65.1755 12.3946C65.3973 12.4263 65.5876 12.5137 65.7464 12.6565C65.9052 12.7994 66.0241 12.9978 66.1032 13.2518C66.1823 13.5058 66.2221 13.847 66.2221 14.2756Z" fill="#1FA36C"/>
</g>
<defs>
<clipPath id="clip0_3679_16770">
<rect width="73.1481" height="25" fill="white" transform="translate(0.983398 0.0375977)"/>
</clipPath>
</defs>
</svg>
