<svg width="148" height="108" viewBox="0 0 148 108" fill="none" xmlns="http://www.w3.org/2000/svg">
<g clip-path="url(#clip0_3_755)">
<path d="M148 108H0C1.62171 103.876 4.61653 100.378 8.83826 99.3404C15.0141 97.8243 21.5497 101.993 27.7114 100.425C31.2122 99.5361 33.9684 96.9435 36.8645 94.7908C47.7904 86.6682 62.7632 84.2675 75.6919 88.5669C82.45 90.8129 88.6083 94.741 95.5312 96.4116C104.483 98.5719 113.845 96.7797 123.05 96.4851C132.016 96.1974 144.863 99.84 148 108Z" fill="#F3F5FD"/>
<path d="M97.5679 66.1353H46.1916V0H86.634L97.5679 11.5216V66.1353Z" fill="#DEE8F5"/>
<path d="M86.634 0V11.5216H97.5679L86.634 0Z" fill="#F3F5FD"/>
<path d="M138.008 56.6354H104.532V13.5433H130.883L138.008 21.0506V56.6354Z" fill="#F3F5FD"/>
<path d="M130.883 13.5433V21.0506H138.008L130.883 13.5433Z" fill="#DEE8F5"/>
<path d="M39.2273 56.6354H5.7518V13.5433H32.1031L39.2273 21.0506V56.6354Z" fill="#F3F5FD"/>
<path d="M32.1031 13.5433V21.0506H39.2273L32.1031 13.5433Z" fill="#DEE8F5"/>
<path d="M42.124 49.4149C41.9201 49.4146 41.7198 49.3609 41.5433 49.2591C41.3668 49.1573 41.2202 49.0111 41.1182 48.835C41.0163 48.659 40.9625 48.4593 40.9623 48.256C40.9622 48.0527 41.0156 47.8529 41.1172 47.6766L46.1574 38.9442C46.2327 38.8105 46.3338 38.693 46.455 38.5985C46.5761 38.504 46.7148 38.4344 46.8631 38.3937C47.0114 38.353 47.1662 38.3421 47.3188 38.3615C47.4713 38.3809 47.6185 38.4303 47.7518 38.5068C47.8851 38.5833 48.0018 38.6854 48.0953 38.8072C48.1888 38.9289 48.2571 39.068 48.2962 39.2163C48.3354 39.3645 48.3448 39.5191 48.3237 39.671C48.3026 39.8229 48.2514 39.9691 48.1733 40.1012L43.1329 48.8336C43.031 49.0105 42.884 49.1574 42.7068 49.2595C42.5296 49.3616 42.3286 49.4152 42.124 49.4149Z" fill="#32B768"/>
<path d="M49.9244 40.6334C49.7386 40.6334 49.5514 40.6254 49.3627 40.6095C47.6337 40.4624 46.0341 39.6364 44.9159 38.3133C43.7977 36.9902 43.2524 35.2783 43.4 33.5543C43.5476 31.8303 44.3759 30.2354 45.7029 29.1204C47.0298 28.0054 48.7466 27.4617 50.4756 27.6089C52.1561 27.752 53.7162 28.5367 54.8305 29.7992C55.9447 31.0616 56.527 32.7044 56.4558 34.3846C56.3846 36.0649 55.6655 37.6528 54.4484 38.8171C53.2314 39.9813 51.6105 40.632 49.9239 40.6334H49.9244ZM49.9165 29.9042C48.8128 29.9027 47.7523 30.3323 46.9625 31.101C46.1726 31.8697 45.7162 32.9164 45.6909 34.0166C45.6657 35.1169 46.0737 36.1832 46.8275 36.9871C47.5814 37.791 48.621 38.2685 49.7236 38.3173C50.8263 38.366 51.9042 37.9822 52.7264 37.2479C53.5486 36.5137 54.0497 35.4876 54.1223 34.3894C54.1948 33.2913 53.8331 32.2085 53.1146 31.3731C52.396 30.5376 51.3779 30.0161 50.2784 29.9202C50.1571 29.9093 50.0362 29.9042 49.9165 29.9042Z" fill="#32B768"/>
<path d="M33.6981 105.967L30.3515 105.57C30.5021 104.307 30.6725 102.79 30.6841 102.541C30.6841 102.557 30.6841 102.57 30.6841 102.58H34.0543C34.0535 102.68 34.0535 102.987 33.6981 105.967Z" fill="#E98862"/>
<path d="M20.2693 106.368L16.8991 106.357C16.8991 106.357 16.9102 102.887 16.9102 102.58H20.2804C20.2806 102.888 20.2693 106.368 20.2693 106.368Z" fill="#E98862"/>
<path d="M34.9414 104.804C34.6625 97.7618 34.6456 90.3652 34.5583 83.3042C33.3987 75.6884 32.7899 67.3353 31.3591 59.7729L31.3164 59.7856L31.1909 58.9327L18.9816 58.182C18.9816 58.182 18.6632 64.1472 18.5521 66.1351C17.9571 76.7905 16.7494 93.9174 16.0306 104.715L21.9474 105.213C23.0042 94.5941 24.7273 77.6772 25.6822 67.2111C26.7302 72.5442 27.7184 78.5496 28.6488 83.9459C28.8524 90.8393 29.0229 98.0231 29.0042 104.905L34.9414 104.804Z" fill="#262626"/>
<path d="M24.3662 107.668C24.5411 107.667 24.7085 107.597 24.8316 107.473C24.9546 107.349 25.0234 107.182 25.0226 107.007C25.0226 106.991 25.0226 106.975 25.0205 106.959C25.0107 106.834 24.9653 106.715 24.8897 106.615C24.8141 106.515 24.7115 106.438 24.5938 106.394L20.6705 105.085C20.5946 105.059 20.514 105.051 20.4345 105.06C20.3549 105.069 20.2782 105.095 20.2096 105.136C19.6703 105.509 19.0252 105.699 18.3692 105.68C17.8582 105.644 17.3677 105.465 16.9537 105.164C16.9173 105.134 16.8732 105.116 16.8265 105.11C16.7798 105.104 16.7324 105.112 16.6899 105.132C16.6474 105.152 16.6115 105.184 16.5864 105.224C16.5613 105.263 16.5481 105.309 16.5482 105.356V107.269C16.5482 107.382 16.5934 107.491 16.674 107.572C16.7546 107.652 16.864 107.697 16.9779 107.697H16.9795L24.3662 107.668Z" fill="#C1D8ED"/>
<path d="M37.8043 107.668C37.9791 107.667 38.1465 107.597 38.2696 107.473C38.3926 107.349 38.4613 107.182 38.4605 107.007C38.4605 106.991 38.4597 106.975 38.4585 106.959C38.4487 106.834 38.4034 106.715 38.3278 106.615C38.2522 106.515 38.1496 106.438 38.0319 106.395L34.1091 105.085C34.0331 105.06 33.9526 105.051 33.8731 105.06C33.7935 105.069 33.7168 105.095 33.6482 105.136C33.1089 105.509 32.4638 105.7 31.8078 105.68C31.2967 105.644 30.8062 105.465 30.3921 105.164C30.3557 105.134 30.3116 105.116 30.2649 105.11C30.2182 105.104 30.1709 105.112 30.1284 105.132C30.0859 105.152 30.05 105.184 30.0249 105.224C29.9998 105.263 29.9865 105.309 29.9866 105.356V107.269C29.9866 107.382 30.0319 107.492 30.1125 107.572C30.1931 107.652 30.3024 107.697 30.4164 107.697H30.4181L37.8043 107.668Z" fill="#C1D8ED"/>
<path d="M22.9376 41.7744C22.9376 41.7744 24.1785 41.1184 23.9015 37.7489L26.4654 37.2748C26.4654 37.2748 26.1765 40.2958 27.4743 41.2549L22.9376 41.7744Z" fill="#E98862"/>
<path d="M22.4466 36.4423C22.6241 37.4646 23.1836 38.4327 24.0879 38.7627C25.1616 39.1547 25.9568 39.1813 27.1946 39.1813C28.8837 39.1813 28.8279 37.4247 28.8754 35.6545C28.9235 33.8783 28.7812 31.9712 28.1135 31.3519C26.7815 30.1159 22.87 30.8985 22.3943 32.966C22.1486 34.0354 22.277 35.4692 22.4466 36.4423Z" fill="#E98862"/>
<path d="M29.9189 31.3324C29.6364 30.2991 28.7557 29.7944 27.2994 30.174C26.2636 30.4439 26.1325 30.2012 25.2553 29.7802C24.753 29.539 23.1048 29.6491 22.697 30.7614C22.2598 31.9529 20.9074 30.988 20.7818 32.9291C20.6766 34.5538 21.2274 36.8762 22.3341 38.1831C22.7174 38.6355 23.3425 39.1778 23.8267 39.3119C24.3022 39.4438 26.358 39.3279 26.5578 39.2104C27.5395 38.6292 27.4387 35.9636 27.283 34.2536C27.2575 33.9723 27.3094 33.5047 28.0335 33.5047C28.531 33.5047 28.8065 33.4928 29.0635 33.3082C29.0639 33.3082 30.2016 32.3655 29.9189 31.3324Z" fill="#0F1011"/>
<path d="M28.2554 35.9904C28.275 36.2493 28.1911 36.5054 28.0219 36.7028C27.8528 36.9003 27.6121 37.0229 27.3526 37.0441C27.093 37.0652 26.8357 36.9831 26.6366 36.8157C26.4376 36.6482 26.3131 36.4091 26.2903 36.1504C26.2777 36.024 26.2903 35.8965 26.3272 35.7749C26.3641 35.6534 26.4246 35.5403 26.5054 35.4422C26.5861 35.344 26.6855 35.2626 26.7978 35.2027C26.91 35.1428 27.0331 35.1056 27.1598 35.0931C27.1707 35.092 27.1814 35.091 27.1919 35.0904C27.895 35.0682 28.211 35.4493 28.2554 35.9904Z" fill="#E98862"/>
<path d="M42.2238 47.0197C42.2238 47.0197 44.9283 45.7634 45.3532 45.4238C46.8496 44.2289 46.8182 43.338 46.6158 42.9615C46.3773 42.5165 43.5706 43.9857 43.5706 43.9857C43.5706 43.9857 44.1146 43.2336 43.8211 43.0271C43.7004 42.9423 43.5346 43.021 43.049 43.5046C42.4955 44.0562 41.5472 44.8301 41.5472 44.8301L42.2238 47.0197Z" fill="#E98862"/>
<path d="M19.132 50.451C19.287 51.071 19.3716 51.7064 19.3844 52.3452C19.3844 55.7057 17.8598 57.2128 17.9721 58.9382C18.1487 61.6497 31.3613 61.009 32.0345 59.4688C32.7277 57.8804 31.3209 56.9017 31.3825 51.7063C31.3891 51.1407 31.4329 50.5493 31.4932 49.947L34.0931 54.5876C34.2292 54.8306 34.4216 55.0375 34.6544 55.1912C34.887 55.3449 35.1532 55.4408 35.4307 55.4709C35.7082 55.5011 35.9888 55.4646 36.2493 55.3645C36.5097 55.2644 36.7423 55.1037 36.9277 54.8957L44.131 46.4945L41.4262 44.5982L35.9475 50.7444L31.6625 43.0953C31.2568 41.887 30.3332 41.0776 28.4491 40.9971C27.8048 40.9696 24.6607 40.9651 22.3587 40.9651C20.8123 40.9651 19.5427 41.4383 18.8094 42.1693L18.7983 42.1801C18.5295 42.453 18.3222 42.78 18.1904 43.1392C18.0586 43.4984 18.0053 43.8816 18.0341 44.263C18.1055 45.3473 18.3435 47.4993 19.132 50.451Z" fill="#FE813A"/>
<path d="M66.6897 18.6497L65.3331 17.297L56.531 26.0737L57.8876 27.4264L66.6897 18.6497Z" fill="white"/>
<path d="M65.3331 27.4266L66.6897 26.0739L57.8876 17.2971L56.531 18.6499L65.3331 27.4266Z" fill="white"/>
<path d="M87.2288 18.6497L85.8721 17.297L77.07 26.0737L78.4266 27.4264L87.2288 18.6497Z" fill="white"/>
<path d="M85.8721 27.4266L87.2288 26.0739L78.4266 17.2972L77.07 18.6499L85.8721 27.4266Z" fill="white"/>
<path d="M62.9758 42.4255L61.558 41.1258C61.7133 40.9568 65.4417 36.9858 72.4414 36.9858C79.4821 36.9858 82.7668 41.0059 82.9032 41.177L81.3954 42.3717C81.2831 42.2336 78.5086 38.9061 72.4414 38.9061C66.3257 38.9063 63.0086 42.39 62.9758 42.4255Z" fill="white"/>
<path d="M120.042 70.9352L118.388 71.3251L120.461 80.0702L122.115 79.6803L120.042 70.9352Z" fill="#F0F6FF"/>
<path d="M121.861 70.257L120.441 77.9329L121.359 78.1018L122.78 70.4259L121.861 70.257Z" fill="#C1D8ED"/>
<path d="M121.862 70.2545L121.701 71.1012L122.618 71.2752L122.779 70.4286L121.862 70.2545Z" fill="#DEE8F5"/>
<path d="M119.019 72.2064L118.509 72.4067L121.484 79.938L121.994 79.7377L119.019 72.2064Z" fill="#0CBC8B"/>
<path d="M122.852 75.5029H118.367V81.2189H122.852V75.5029Z" fill="#C1D8ED"/>
<path d="M106.394 91.5438H104.716V108H106.394V91.5438Z" fill="#C1D8ED"/>
<path d="M105.013 91.5438H103.335V108H105.013V91.5438Z" fill="#DEE8F5"/>
<path d="M127.29 91.5438H125.612V108H127.29V91.5438Z" fill="#C1D8ED"/>
<path d="M125.909 91.5438H124.231V108H125.909V91.5438Z" fill="#DEE8F5"/>
<path d="M110.995 91.5438H109.317V108H110.995V91.5438Z" fill="#C1D8ED"/>
<path d="M109.614 91.5438H107.937V108H109.614V91.5438Z" fill="#DEE8F5"/>
<path d="M131.891 91.5438H130.213V108H131.891V91.5438Z" fill="#C1D8ED"/>
<path d="M130.51 91.5438H128.833V108H130.51V91.5438Z" fill="#DEE8F5"/>
<path d="M131.891 81.0104H109.328V91.9384H131.891V81.0104Z" fill="#C1D8ED"/>
<path d="M125.899 81.0104H103.335V91.9384H125.899V81.0104Z" fill="#DEE8F5"/>
<g opacity="0.53">
<path opacity="0.53" d="M124.685 82.5638H104.549V90.3366H124.685V82.5638Z" fill="#F3F5FD"/>
</g>
<path d="M114.617 87.3419C115.111 87.3419 115.511 86.9427 115.511 86.4502C115.511 85.9578 115.111 85.5586 114.617 85.5586C114.123 85.5586 113.723 85.9578 113.723 86.4502C113.723 86.9427 114.123 87.3419 114.617 87.3419Z" fill="white"/>
</g>
<defs>
<clipPath id="clip0_3_755">
<rect width="148" height="108" fill="white"/>
</clipPath>
</defs>
</svg>
