<svg width="142" height="70" viewBox="0 0 142 70" fill="none" xmlns="http://www.w3.org/2000/svg">
<path d="M98.2528 70H43.7451V0H86.6525L98.2528 12.1949V70Z" fill="#DEE8F5"/>
<path d="M86.6523 0V12.1949H98.2527L86.6523 0Z" fill="#F3F5FD"/>
<path d="M141.158 59.9452H105.643V14.335H133.6L141.158 22.2809V59.9452Z" fill="#F3F5FD"/>
<path d="M133.6 14.335V22.2809H141.158L133.6 14.335Z" fill="#DEE8F5"/>
<path d="M36.3567 59.9452H0.84082V14.335H28.7982L36.3567 22.2809V59.9452Z" fill="#F3F5FD"/>
<path d="M28.7979 14.335V22.2809H36.3564L28.7979 14.335Z" fill="#DEE8F5"/>
<path d="M65.494 19.7397L64.0547 18.3079L54.7161 27.5974L56.1554 29.0292L65.494 19.7397Z" fill="white"/>
<path d="M64.0548 29.0292L65.4941 27.5974L56.1555 18.3078L54.7162 19.7396L64.0548 29.0292Z" fill="white"/>
<path d="M87.2851 19.7392L85.8457 18.3074L76.5071 27.5969L77.9464 29.0287L87.2851 19.7392Z" fill="white"/>
<path d="M85.8458 29.0287L87.2852 27.5969L77.9465 18.3073L76.5072 19.7391L85.8458 29.0287Z" fill="white"/>
<path d="M61.5522 44.9047L60.0479 43.5291C60.2127 43.3502 64.1683 39.1472 71.5947 39.1472C79.0645 39.1472 82.5494 43.4022 82.6941 43.5833L81.0944 44.8478C80.9752 44.7017 78.0317 41.1797 71.5947 41.1797C65.1062 41.1799 61.5869 44.8671 61.5522 44.9047Z" fill="white"/>
</svg>
