<svg width="328" height="251" viewBox="0 0 328 251" fill="none" xmlns="http://www.w3.org/2000/svg">
<path d="M59.2167 249.723L15.2274 250.119C15.2274 250.119 -2.8016 223.903 1.03595 136.517C4.8735 49.132 44.8933 3.83615 91.3459 0.94832C148.015 -2.57642 153.112 18.6427 215.281 25.7909C353.801 41.7178 343.292 200.245 294.083 249.723H59.2167Z" fill="#E2FFF4"/>
<path d="M32.0134 90.7292C32.0134 90.7292 23.5248 75.6585 3.15918 79.5669C3.15918 79.5669 16.8694 101.4 32.0134 90.7292Z" fill="#3F9896"/>
<path d="M45.27 94.7075C45.27 94.7075 42.7415 64.4979 8.47705 54.0178C8.47705 54.0178 14.326 98.9289 45.27 94.7075Z" fill="#7FC6A6"/>
<path d="M264.653 46.4022L264.459 46.3924C263.744 46.3561 263.041 46.3467 262.342 46.3652L262.149 46.3701L262.138 45.9558L262.331 45.9502C263.041 45.9313 263.752 45.9407 264.478 45.9777L264.671 45.988L264.653 46.4022ZM257.955 46.9072L257.878 46.5013L258.066 46.4589C258.747 46.3066 259.462 46.1868 260.191 46.1017L260.381 46.0794L260.424 46.4918L260.23 46.5141C259.518 46.5977 258.813 46.716 258.143 46.8649L257.955 46.9072ZM268.86 46.9273L268.669 46.8921C267.967 46.7636 267.26 46.6566 266.571 46.5742L266.38 46.5512L266.422 46.1388L266.613 46.1618C267.31 46.2454 268.023 46.3535 268.735 46.4835L268.926 46.5183L268.86 46.9273ZM272.996 47.9444L272.81 47.8885C272.132 47.6859 271.441 47.4992 270.754 47.3332L270.563 47.2879L270.648 46.883L270.837 46.9288C271.531 47.0958 272.227 47.2844 272.914 47.4893L273.099 47.5445L272.996 47.9444ZM253.972 48.364L253.808 47.9886L253.983 47.9002C254.619 47.5789 255.292 47.2924 255.986 47.0501L256.169 46.9855L256.288 47.3801L256.105 47.4443C255.427 47.6813 254.77 47.9611 254.147 48.2759L253.972 48.364ZM244.643 49.4473L244.45 49.4265C243.769 49.3539 243.062 49.3263 242.346 49.3437L242.153 49.3487L242.142 48.9336L242.335 48.9291C243.064 48.9109 243.793 48.94 244.487 49.0137L244.681 49.0342L244.643 49.4473ZM237.977 49.9814L237.887 49.5773L238.075 49.5293C238.777 49.3502 239.487 49.2092 240.19 49.109L240.383 49.0818L240.433 49.4934L240.24 49.5206C239.551 49.6185 238.854 49.7573 238.165 49.933L237.977 49.9814ZM248.689 50.5971L248.512 50.5147C247.894 50.226 247.224 49.9863 246.524 49.8022L246.336 49.7527L246.426 49.3498L246.614 49.3989C247.338 49.589 248.03 49.8362 248.665 50.1341L248.843 50.2169L248.689 50.5971ZM250.403 50.7691L250.168 50.4391L250.321 50.3136C250.883 49.8529 251.479 49.414 252.094 49.0085L252.258 48.8996L252.462 49.253L252.295 49.3619C251.694 49.7599 251.108 50.1912 250.554 50.6433L250.403 50.7691ZM234 51.4952L233.838 51.1184L234.016 51.0318C234.665 50.7128 235.336 50.424 236.011 50.1742L236.194 50.1065L236.321 50.4989L236.136 50.5662C235.473 50.8118 234.813 51.0953 234.178 51.4087L234 51.4952ZM251.969 53.2918L251.847 53.1316C251.418 52.5721 250.91 52.0611 250.329 51.6139L250.173 51.4926L250.398 51.1558L250.554 51.2771C251.161 51.7455 251.696 52.2807 252.147 52.8681L252.269 53.028L251.969 53.2918ZM230.426 53.8766L230.19 53.5492L230.341 53.4219C230.908 52.9479 231.504 52.5064 232.114 52.1102L232.278 52.0025L232.479 52.3578L232.312 52.4652C231.716 52.853 231.134 53.285 230.58 53.7488L230.426 53.8766ZM247.369 53.9098L247.073 53.6418L247.197 53.4831C247.656 52.9036 248.154 52.3397 248.681 51.8071L248.822 51.665L249.087 51.9666L248.946 52.1091C248.429 52.6311 247.942 53.1837 247.494 53.7515L247.369 53.9098ZM227.448 57.0725L227.151 56.809L227.27 56.6487C227.732 56.0485 228.222 55.4755 228.725 54.9451L228.863 54.7996L229.13 55.0956L228.993 55.2407C228.5 55.7612 228.02 56.3237 227.57 56.9122L227.448 57.0725ZM253.498 57.3843L253.469 57.1791C253.429 56.8872 253.376 56.5973 253.312 56.3161C253.215 55.872 253.082 55.4388 252.921 55.0294L252.846 54.8382L253.201 54.6756L253.278 54.8669C253.448 55.2978 253.586 55.7533 253.692 56.2201C253.755 56.5123 253.808 56.8139 253.853 57.1174L253.879 57.3227L253.498 57.3843ZM245.107 57.7131L244.76 57.534L244.842 57.3469C245.144 56.6695 245.505 55.9918 245.907 55.333L246.013 55.1598L246.336 55.3881L246.23 55.5613C245.835 56.2046 245.486 56.8653 245.192 57.526L245.107 57.7131ZM225.116 60.852L224.778 60.6513L224.872 60.4698C225.223 59.7868 225.599 59.1242 225.991 58.5005L226.097 58.3285L226.417 58.5598L226.311 58.7318C225.927 59.3457 225.556 59.9981 225.209 60.6702L225.116 60.852ZM253.54 61.941L253.167 61.8294L253.22 61.6295C253.402 60.92 253.519 60.1765 253.559 59.419L253.572 59.2119L253.957 59.2364L253.946 59.4436C253.901 60.2306 253.784 61.0035 253.591 61.741L253.54 61.941ZM244.053 62.037L243.666 62.0113L243.679 61.8041C243.719 61.0769 243.851 60.3054 244.066 59.5116L244.122 59.3124L244.49 59.4285L244.437 59.6277C244.228 60.392 244.103 61.1328 244.063 61.8294L244.053 62.037ZM223.385 64.9989L223.023 64.8537L223.09 64.6594C223.344 63.928 223.62 63.2118 223.908 62.5299L223.989 62.3409L224.341 62.5129L224.261 62.7015C223.975 63.375 223.703 64.0823 223.452 64.8042L223.385 64.9989ZM251.238 65.8565L250.984 65.5424L251.132 65.4071C251.625 64.9505 252.059 64.3729 252.425 63.6914L252.52 63.5115L252.857 63.7186L252.762 63.8986C252.375 64.6209 251.911 65.234 251.381 65.7212L251.238 65.8565ZM245.354 66.2001L245.192 66.0841C244.593 65.649 244.159 64.9962 243.907 64.1431L243.848 63.9454L244.219 63.8199L244.275 64.0176C244.5 64.7793 244.882 65.3591 245.409 65.7401L245.568 65.8565L245.354 66.2001ZM248.22 67.0086C247.905 67.0086 247.576 66.9761 247.251 66.9115L247.06 66.8741L247.129 66.4658L247.32 66.5036C247.624 66.5634 247.929 66.5936 248.22 66.5936C248.607 66.5936 248.986 66.5414 249.346 66.4375L249.534 66.3842L249.633 66.7849L249.447 66.8385C249.052 66.9512 248.641 67.0086 248.22 67.0086ZM222.173 69.3616L221.798 69.2645L221.844 69.0626C222.012 68.3112 222.202 67.5639 222.405 66.8412L222.461 66.6427L222.831 66.763L222.775 66.9614C222.572 67.6765 222.386 68.4163 222.219 69.1598L222.173 69.3616ZM221.423 73.8476L221.04 73.7939L221.065 73.5879C221.155 72.8334 221.267 72.0684 221.398 71.3139L221.433 71.1098L221.813 71.1854L221.777 71.3895C221.648 72.1364 221.538 72.8943 221.448 73.642L221.423 73.8476Z" fill="#3F9896"/>
<path d="M279.55 54.9707L281.76 52.8824C281.76 52.8824 291.42 53.1239 291.563 53.0706C291.704 53.0173 296.926 51.0737 296.926 51.0737L290.819 49.8176L280.57 49.945L279.55 54.9707Z" fill="#FF424D"/>
<path d="M278.943 44.3362L296.926 51.0738L280.57 49.9451L278.943 44.3362Z" fill="#FD7583"/>
<path d="M281.76 52.8824L283.458 58.8493L296.926 51.0737L281.76 52.8824Z" fill="#FD7583"/>
<path d="M199.26 107.657C194.406 113.38 186.151 113.796 180.821 108.585C175.49 103.374 175.104 94.5086 179.956 88.7851C184.809 83.0609 193.066 82.6459 198.396 87.8568C203.726 93.0681 204.113 101.933 199.26 107.657ZM198.966 80.1629C197.12 79.0572 195.147 78.3039 193.127 77.9025L191.971 72.5815L188.497 72.7562L185.021 72.9312L184.334 78.3451C182.358 78.9476 180.459 79.8956 178.718 81.1819L174.395 78.2963L172.053 81.0587L169.712 83.821L172.791 88.1709C171.761 90.1538 171.06 92.2732 170.686 94.4421L165.731 95.6823L165.894 99.4142L166.057 103.146L171.098 103.883C171.66 106.005 172.543 108.044 173.74 109.915L171.053 114.556L173.625 117.071L176.198 119.586L180.249 116.279C182.096 117.384 184.069 118.137 186.088 118.539L187.244 123.86L190.719 123.685L194.195 123.511L194.882 118.097C196.857 117.494 198.757 116.546 200.499 115.259L204.82 118.145L207.162 115.383L209.505 112.62L206.425 108.27C207.454 106.288 208.155 104.169 208.53 102L213.485 100.759L213.321 97.0272L213.158 93.2957L208.117 92.5586C207.557 90.4362 206.672 88.3973 205.476 86.5263L208.163 81.8861L205.59 79.371L203.018 76.8555L198.966 80.1629Z" fill="#7FC6A6"/>
<path d="M171.223 62.9357C167.88 66.257 162.663 66.0389 159.57 62.4496C156.478 58.8602 156.68 53.2584 160.023 49.937C163.366 46.616 168.583 46.8334 171.675 50.4227C174.768 54.0121 174.566 59.6147 171.223 62.9357ZM172.423 45.6132C171.315 44.81 170.111 44.2215 168.86 43.8514L168.401 40.4355L166.205 40.3437L164.008 40.2522L163.304 43.6201C162.03 43.8847 160.787 44.3715 159.625 45.0799L157.05 43.0126L155.438 44.6153L153.824 46.2184L155.544 49.1349C154.796 50.3233 154.247 51.6164 153.904 52.9602L150.723 53.4531L150.636 55.8113L150.551 58.1696L153.688 58.9267C153.933 60.2947 154.388 61.6293 155.047 62.8763L153.122 65.6413L154.614 67.3736L156.107 69.1059L158.823 67.2591C159.931 68.0623 161.135 68.6512 162.386 69.0209L162.845 72.4375L165.041 72.529L167.238 72.6205L167.942 69.2526C169.217 68.9884 170.459 68.5015 171.62 67.7932L174.195 69.8604L175.808 68.2574L177.421 66.6543L175.702 63.7378C176.45 62.5494 176.998 61.2566 177.342 59.9129L180.523 59.4196L180.608 57.0613L180.695 54.7027L177.558 53.9463C177.312 52.578 176.858 51.243 176.198 49.9964L178.124 47.2314L176.631 45.4991L175.139 43.7664L172.423 45.6132Z" fill="#F7AB48"/>
<path d="M55.0926 42.0353C60.1565 41.7488 77.5111 40.9626 89.3782 42.8518C90.9175 43.0967 91.8978 41.1161 90.833 39.897C90.21 39.1845 89.148 38.604 87.3609 38.4698C87.3609 38.4698 87.9762 26.5733 79.6076 25.7852C70.0098 24.8811 69.8937 36.5692 69.8937 36.5692C69.8937 36.5692 65.5313 32.1222 62.3851 37.7603C62.3851 37.7603 56.9477 34.3856 54.2048 40.6186C53.906 41.2983 54.3935 42.075 55.0926 42.0353Z" fill="white"/>
<path d="M310.728 136.082C307.288 135.87 299.226 135.501 292.218 136.136C289.317 136.399 286.813 133.91 286.879 130.787C286.906 129.508 287.332 128.021 288.437 126.336C292.695 119.846 300.09 126.043 300.018 129.338C300.018 129.338 301.515 124.377 306.056 125.246C310.598 126.114 308.992 133.329 308.992 133.329C308.992 133.329 310.46 132.995 311.475 133.74C312.473 134.473 311.933 136.156 310.728 136.082Z" fill="white"/>
<path d="M45.2437 242.05V111.845C45.2437 105.659 49.2466 100.644 54.1839 100.644H255.673C260.609 100.644 264.612 105.659 264.612 111.845V242.05H45.2437Z" fill="#4CB7D8"/>
<path d="M50.3789 235.048V117.356C50.3789 108.912 52.5613 108.096 55.2535 108.096H254.602C257.294 108.096 259.478 110.358 259.478 113.148V235.048H50.3789Z" fill="#DCF4FF"/>
<path d="M50.1162 219.874L50.6407 219.311V113.148C50.6407 110.517 52.7098 108.377 55.253 108.377V107.814C52.4208 107.814 50.1162 110.207 50.1162 113.148V219.874Z" fill="#21111D"/>
<path d="M259.66 235.048H259.292V113.148C259.292 110.471 257.188 108.294 254.602 108.294H55.2534V107.898H254.602C257.392 107.898 259.66 110.253 259.66 113.148V235.048Z" fill="#21111D"/>
<path d="M24.0742 249.528H277.257V242.05H24.0742V249.528Z" fill="#128CB2"/>
<path d="M94.7716 54.5266V150.902H27.9326V70.3855L42.3229 54.5266H94.7716Z" fill="white"/>
<path d="M27.9326 70.4157L42.2388 54.5266V70.4157H27.9326Z" fill="#3AA1C9"/>
<path d="M48.7609 66.5229H77.9199C78.3385 66.5229 78.6775 66.1585 78.6775 65.7094C78.6775 65.26 78.3385 64.896 77.9199 64.896H48.7609C48.3428 64.896 48.0034 65.26 48.0034 65.7094C48.0034 66.1585 48.3428 66.5229 48.7609 66.5229Z" fill="#3AA1C9"/>
<path d="M44.7844 72.8258H81.8959C82.314 72.8258 82.6534 72.4618 82.6534 72.0124C82.6534 71.5634 82.314 71.199 81.8959 71.199H44.7844C44.3662 71.199 44.0269 71.5634 44.0269 72.0124C44.0269 72.4618 44.3662 72.8258 44.7844 72.8258Z" fill="#3AA1C9"/>
<path d="M34.9383 87.8712H88.7123C89.1308 87.8712 89.4698 87.5068 89.4698 87.0582C89.4698 86.6087 89.1308 86.2451 88.7123 86.2451H34.9383C34.5198 86.2451 34.1812 86.6087 34.1812 87.0582C34.1812 87.5068 34.5198 87.8712 34.9383 87.8712Z" fill="#3AA1C9"/>
<path d="M34.9383 94.9877H88.7123C89.1308 94.9877 89.4698 94.6237 89.4698 94.1743C89.4698 93.7252 89.1308 93.3608 88.7123 93.3608H34.9383C34.5198 93.3608 34.1812 93.7252 34.1812 94.1743C34.1812 94.6237 34.5198 94.9877 34.9383 94.9877Z" fill="#3AA1C9"/>
<path d="M34.9383 102.104H88.7123C89.1308 102.104 89.4698 101.74 89.4698 101.291C89.4698 100.842 89.1308 100.477 88.7123 100.477H34.9383C34.5198 100.477 34.1812 100.842 34.1812 101.291C34.1812 101.74 34.5198 102.104 34.9383 102.104Z" fill="#3AA1C9"/>
<path d="M34.9383 110.221H88.7123C89.1308 110.221 89.4698 109.857 89.4698 109.408C89.4698 108.959 89.1308 108.595 88.7123 108.595H34.9383C34.5198 108.595 34.1812 108.959 34.1812 109.408C34.1812 109.857 34.5198 110.221 34.9383 110.221Z" fill="#3AA1C9"/>
<path d="M34.9383 117.338H88.7123C89.1308 117.338 89.4698 116.973 89.4698 116.524C89.4698 116.075 89.1308 115.711 88.7123 115.711H34.9383C34.5198 115.711 34.1812 116.075 34.1812 116.524C34.1812 116.973 34.5198 117.338 34.9383 117.338Z" fill="#3AA1C9"/>
<path d="M34.9383 141.752H88.7123C89.1308 141.752 89.4698 141.389 89.4698 140.938C89.4698 140.489 89.1308 140.125 88.7123 140.125H34.9383C34.5198 140.125 34.1812 140.489 34.1812 140.938C34.1812 141.389 34.5198 141.752 34.9383 141.752Z" fill="#3AA1C9"/>
<path d="M34.9383 135.942H88.7123C89.1308 135.942 89.4698 135.578 89.4698 135.129C89.4698 134.681 89.1308 134.315 88.7123 134.315H34.9383C34.5198 134.315 34.1812 134.681 34.1812 135.129C34.1812 135.578 34.5198 135.942 34.9383 135.942Z" fill="#3AA1C9"/>
<path d="M111.914 219.51H232.034V118.932H111.914V219.51Z" fill="white"/>
<path d="M131.921 129.604H227.065V124.483H131.921V129.604Z" fill="#D4EEF4"/>
<path d="M117.149 155.508H227.064V137.678H117.149V155.508Z" fill="#D4EEF4"/>
<path d="M117.149 213.831H227.064V154.929H117.149V213.831Z" fill="#DEF8FC"/>
<path d="M129.304 127.043C129.304 128.458 128.237 129.604 126.919 129.604C125.602 129.604 124.534 128.458 124.534 127.043C124.534 125.629 125.602 124.483 126.919 124.483C128.237 124.483 129.304 125.629 129.304 127.043Z" fill="#D4EEF4"/>
<path d="M121.918 127.043C121.918 128.458 120.85 129.604 119.533 129.604C118.217 129.604 117.149 128.458 117.149 127.043C117.149 125.629 118.217 124.483 119.533 124.483C120.85 124.483 121.918 125.629 121.918 127.043Z" fill="#D4EEF4"/>
<path d="M120.506 143.549H206.353V141.79H120.506V143.549Z" fill="white"/>
<path d="M120.506 149.232H206.353V147.473H120.506V149.232Z" fill="white"/>
<path d="M223.136 161.068H155.308C154.888 161.068 154.549 160.704 154.549 160.254C154.549 159.805 154.888 159.441 155.308 159.441H223.136C223.556 159.441 223.895 159.805 223.895 160.254C223.895 160.704 223.556 161.068 223.136 161.068Z" fill="#B9E7F1"/>
<path d="M223.136 166.009H155.308C154.888 166.009 154.549 165.645 154.549 165.196C154.549 164.746 154.888 164.382 155.308 164.382H223.136C223.556 164.382 223.895 164.746 223.895 165.196C223.895 165.645 223.556 166.009 223.136 166.009Z" fill="#B9E7F1"/>
<path d="M223.136 170.95H155.308C154.888 170.95 154.549 170.586 154.549 170.137C154.549 169.688 154.888 169.324 155.308 169.324H223.136C223.556 169.324 223.895 169.688 223.895 170.137C223.895 170.586 223.556 170.95 223.136 170.95Z" fill="#B9E7F1"/>
<path d="M223.136 180.833H155.308C154.888 180.833 154.549 180.468 154.549 180.018C154.549 179.57 154.888 179.206 155.308 179.206H223.136C223.556 179.206 223.895 179.57 223.895 180.018C223.895 180.468 223.556 180.833 223.136 180.833Z" fill="#B9E7F1"/>
<path d="M223.136 185.774H155.308C154.888 185.774 154.549 185.41 154.549 184.961C154.549 184.51 154.888 184.147 155.308 184.147H223.136C223.556 184.147 223.895 184.51 223.895 184.961C223.895 185.41 223.556 185.774 223.136 185.774Z" fill="#B9E7F1"/>
<path d="M223.136 190.714H155.308C154.888 190.714 154.549 190.351 154.549 189.902C154.549 189.453 154.888 189.087 155.308 189.087H223.136C223.556 189.087 223.895 189.453 223.895 189.902C223.895 190.351 223.556 190.714 223.136 190.714Z" fill="#B9E7F1"/>
<path d="M223.136 200.598H155.308C154.888 200.598 154.549 200.234 154.549 199.784C154.549 199.334 154.888 198.97 155.308 198.97H223.136C223.556 198.97 223.895 199.334 223.895 199.784C223.895 200.234 223.556 200.598 223.136 200.598Z" fill="#B9E7F1"/>
<path d="M223.136 205.538H155.308C154.888 205.538 154.549 205.174 154.549 204.726C154.549 204.275 154.888 203.911 155.308 203.911H223.136C223.556 203.911 223.895 204.275 223.895 204.726C223.895 205.174 223.556 205.538 223.136 205.538Z" fill="#B9E7F1"/>
<path d="M121.271 187.267H150.16V159.441H121.271V187.267Z" fill="#D4EEF4"/>
<path d="M121.271 205.538H150.16V194.567H121.271V205.538Z" fill="#D4EEF4"/>
<path d="M147.648 180.833H126.548C127.912 178.338 128.697 175.433 128.701 172.334L135.47 175.433L140.331 164.382L147.648 180.833Z" fill="#B0DEE9"/>
<path d="M131.92 169.324C130.698 169.324 129.707 168.259 129.707 166.947C129.707 165.634 130.698 164.571 131.92 164.571C133.142 164.571 134.133 165.634 134.133 166.947C134.133 168.259 133.142 169.324 131.92 169.324Z" fill="#B0DEE9"/>
<path d="M76.1094 235.246H222.646V234.851H76.1094V235.246Z" fill="#21111D"/>
<path d="M262.906 140.585L266.849 137.52L267.108 137.319L271.053 134.255L306.599 179.952C307.598 181.237 307.373 183.164 306.109 184.145L296.073 191.945C294.809 192.926 293.036 192.553 292.212 191.13L262.906 140.585Z" fill="#FF424D"/>
<path d="M262.983 142.075L272.418 134.744C273.04 134.262 273.181 133.328 272.73 132.66L269.421 127.747L257.731 136.829L261.041 141.739C261.491 142.407 262.36 142.559 262.983 142.075Z" fill="#F99247"/>
<path d="M265.482 140.451L271.843 135.509C272.966 134.637 273.218 132.945 272.405 131.74L269.615 127.598L269.228 127.899L272.018 132.041C272.675 133.017 272.471 134.386 271.562 135.092L265.201 140.036L265.482 140.451Z" fill="#21111D"/>
<path d="M264.613 130.96V111.846C264.613 105.659 260.609 100.644 255.673 100.644H222.799C224.423 94.9665 227.718 89.7877 232.545 86.0376C237.216 82.4082 242.621 80.6611 247.976 80.6611C256.147 80.6611 264.205 84.7272 269.36 92.3788C277.611 104.621 275.417 121.563 264.613 130.96Z" fill="#D3DFD3"/>
<path d="M259.66 134.372V113.148C259.66 110.253 257.392 107.898 254.602 107.898H221.65C221.74 105.438 222.126 102.998 222.799 100.644H255.673C260.609 100.644 264.612 105.659 264.612 111.845V130.96C264.236 131.287 263.852 131.604 263.454 131.911C262.235 132.86 260.966 133.678 259.66 134.372Z" fill="#3FABCF"/>
<path d="M248.021 137.289C242.322 137.289 236.676 135.311 232.034 131.515V118.932H223.311C222.104 115.488 221.557 111.874 221.639 108.294H254.602C257.188 108.294 259.292 110.471 259.292 113.148V134.564C255.702 136.397 251.85 137.289 248.021 137.289Z" fill="#B7E4F4"/>
<path d="M259.292 134.564V113.148C259.292 110.471 257.188 108.294 254.603 108.294H221.639C221.644 108.162 221.647 108.03 221.651 107.898H254.603C257.393 107.898 259.661 110.253 259.661 113.148V134.372C259.539 134.437 259.417 134.501 259.292 134.564Z" fill="#1B101C"/>
<path d="M232.034 131.515C230.203 130.019 228.526 128.239 227.063 126.187V124.483H225.94C224.856 122.708 223.982 120.847 223.311 118.932H232.034V131.515Z" fill="#D4EEF4"/>
<path d="M227.063 126.187C226.92 125.983 226.777 125.779 226.639 125.572C226.398 125.213 226.165 124.85 225.94 124.483H227.063V126.187Z" fill="#B0DEE9"/>
<path d="M230.132 116.245C232.712 116.69 235.505 112.348 236.369 106.549C237.238 100.751 235.847 95.6893 233.269 95.2452C230.688 94.8007 227.896 99.1419 227.032 104.941C226.165 110.74 227.554 115.801 230.132 116.245Z" fill="#F3FFFE"/>
<path d="M306.891 180.73L307.259 180.4L271.885 135.134L271.517 135.465L306.891 180.73Z" fill="#21111D"/>
<path d="M251.733 84.7921L251.868 84.2985C251.81 84.28 246.039 82.5015 240.761 84.9932L240.955 85.465C246.066 83.0504 251.677 84.7747 251.733 84.7921Z" fill="#21111D"/>
<path d="M252.245 88.3033L252.382 87.8089C252.324 87.7912 246.551 86.0123 241.276 88.5044L241.469 88.9758C246.58 86.5616 252.189 88.2852 252.245 88.3033Z" fill="#21111D"/>
<path d="M272.757 89.7394C262.863 75.0568 243.758 71.7664 230.086 82.3902C216.413 93.0139 213.349 113.528 223.242 128.211C233.136 142.894 252.239 146.184 265.913 135.56C279.585 124.937 282.65 104.422 272.757 89.7394ZM263.454 131.912C251.656 141.078 235.173 138.24 226.639 125.572C218.103 112.904 220.746 95.2036 232.545 86.0378C244.341 76.8719 260.823 79.7106 269.36 92.3789C277.894 105.047 275.253 122.746 263.454 131.912Z" fill="#FECC86"/>
<path d="M266.054 135.769C279.813 125.079 282.907 104.362 272.95 89.5885C262.996 74.8144 243.702 71.4915 229.946 82.1814C223.494 87.1932 219.15 94.5813 217.71 102.986L218.182 103.079C219.599 94.8055 223.877 87.5322 230.227 82.5987C243.771 72.0751 262.763 75.3463 272.564 89.8905C282.362 104.434 279.317 124.828 265.773 135.351C259.486 140.236 251.789 142.335 244.097 141.261L244.034 141.771C251.847 142.863 259.666 140.73 266.054 135.769Z" fill="#21111D"/>
<path d="M109.197 79.6047L111.054 80.4669L113.119 81.5181C113.119 81.5181 116.327 82.1161 116.372 82.1047L116.107 82.6177C120.086 83.1446 132.628 83.698 134.686 83.9444C135.928 84.0937 137.12 85.7504 137.873 87.0435L136.854 87.7844C136.854 87.7844 125.9 87.2658 125.922 87.513C125.929 87.5909 126.239 88.7585 126.718 90.2859C119.954 90.7713 110.48 90.7248 108.72 87.7315C107.277 85.2753 108.683 81.7506 109.197 79.6047Z" fill="#FE9F73"/>
<path d="M151.746 132.394L143.423 132.517L143.304 124.162L151.594 123.059L151.746 132.394Z" fill="#FE9F73"/>
<path d="M159.764 135.496L142.895 133.291L143.304 129.679C143.304 129.679 144.728 128.105 146.496 129.234C146.496 129.234 149.02 131.727 151.799 129.505L157.722 133.176C157.722 133.176 159.903 134.268 159.764 135.496Z" fill="#3AA1C9"/>
<path d="M142.751 134.556L160.18 136.835C160.276 136.846 160.362 136.774 160.374 136.671L160.475 135.778C160.487 135.676 160.419 135.583 160.324 135.57L142.895 133.292L142.751 134.556Z" fill="#472A31"/>
<path d="M153.552 130.592C152.88 131.458 151.53 133.2 150.67 134.307L149.52 134.157C150.287 133.169 151.896 131.093 152.697 130.063L153.552 130.592Z" fill="#D7E4F7"/>
<path d="M152.514 134.55L151.364 134.399C151.989 133.594 153.206 132.023 154.069 130.912L154.924 131.442C154.199 132.376 153.196 133.669 152.514 134.55Z" fill="#D7E4F7"/>
<path d="M125.861 102.602C125.861 102.602 118.698 102.728 113.676 102.544C112.064 102.485 110.629 102.606 109.78 102.404C106.285 101.57 105.424 89.8549 109.393 82.6776C113.362 75.5 127.247 97.5371 127.247 97.5371L125.861 102.602Z" fill="#FECC86"/>
<path d="M138.828 132.394L130.506 132.517L130.385 124.162L138.675 123.059L138.828 132.394Z" fill="#FE9F73"/>
<path d="M146.246 136.407L129.588 132.794L130.259 129.226C130.259 129.226 131.793 127.777 133.474 129.052C133.474 129.052 135.809 131.748 138.741 129.766L144.379 133.923C144.379 133.923 146.473 135.194 146.246 136.407Z" fill="#4CB7D8"/>
<path d="M129.354 134.043L146.563 137.775C146.658 137.796 146.749 137.731 146.768 137.63L146.934 136.747C146.953 136.646 146.893 136.549 146.797 136.528L129.588 132.794L129.354 134.043Z" fill="#683D46"/>
<path d="M140.41 130.997C139.676 131.804 138.204 133.427 137.266 134.46L136.13 134.213C136.968 133.291 138.723 131.357 139.596 130.396L140.41 130.997Z" fill="#D7E4F7"/>
<path d="M139.087 134.854L137.952 134.608C138.632 133.859 139.961 132.395 140.901 131.359L141.715 131.959C140.925 132.83 139.831 134.035 139.087 134.854Z" fill="#D7E4F7"/>
<path d="M133.577 86.9237C133.577 86.9237 151.176 88.1314 151.685 90.3135C152.192 92.4961 153.649 115.697 152.559 125.595C152.559 125.595 145.883 126.089 142.688 125.257L141.911 101.123L136.64 100.473L124.565 84.8853L133.577 86.9237Z" fill="#FFB357"/>
<path d="M125.121 86.5664C125.121 86.5664 138.694 90.6789 139.202 92.861C139.711 95.0436 141.157 115.749 140.067 125.647C140.067 125.647 132.887 126.089 129.694 125.257L128.833 102.49L125.735 102.606L118.226 88.4185L125.121 86.5664Z" fill="#FECC86"/>
<path d="M134.002 125.917C130.829 125.917 129.699 125.403 129.644 125.378L129.574 125.345L128.741 102.444L130.052 103.108L129.948 103.346L129.002 102.867L129.813 125.165C130.156 125.292 131.802 125.802 135.689 125.61L135.699 125.872C135.078 125.903 134.514 125.917 134.002 125.917Z" fill="#21111D"/>
<path d="M131.027 120.978C130.689 119.576 130.592 105.896 130.587 105.314L130.832 105.312C130.834 105.455 130.933 119.541 131.263 120.912L131.027 120.978Z" fill="#21111D"/>
<path d="M143.639 101.638C142.031 101.078 139.816 100.994 139.792 100.993L139.801 100.731C139.823 100.731 142.073 100.817 143.714 101.387L143.639 101.638Z" fill="#21111D"/>
<path d="M147.261 125.867C144.551 125.867 142.679 125.39 142.66 125.385L142.569 125.362L141.783 100.958L142.786 101.825L142.634 102.03L142.047 101.523L142.808 125.152C143.223 125.248 145.032 125.631 147.499 125.603L147.501 125.866C147.421 125.867 147.34 125.867 147.261 125.867Z" fill="#21111D"/>
<path d="M143.847 121.487C143.51 119.368 143.832 105.028 143.845 104.419L144.09 104.425C144.087 104.574 143.756 119.349 144.088 121.442L143.847 121.487Z" fill="#21111D"/>
<path d="M120.471 102.847C117.344 102.847 113.597 102.733 109.383 102.393L109.402 102.131C121.956 103.147 130.375 102.142 130.458 102.132L130.487 102.393C130.431 102.399 126.679 102.847 120.471 102.847Z" fill="#21111D"/>
<path d="M124.769 79.218C125.01 79.2135 134.76 83.7161 134.76 83.7161L132.796 87.753L127.323 86.4637L124.769 79.218Z" fill="#FD7583"/>
<path d="M110.643 60.4553C110.643 60.4553 106.497 60.2996 104.518 61.5035C101.565 63.3 102.617 73.5896 102.617 73.5896C102.617 73.5896 105.126 72.12 105.279 71.6298C105.431 71.1395 110.643 60.4553 110.643 60.4553Z" fill="#FD7583"/>
<path d="M109.637 82.7903L109.652 82.7952L112.702 83.5448C112.763 83.5595 112.825 83.5183 112.838 83.4526C112.853 83.3868 112.815 83.321 112.753 83.3059L109.702 82.5563C109.641 82.5412 109.581 82.5824 109.566 82.6486C109.553 82.7087 109.585 82.7688 109.637 82.7903Z" fill="#21111D"/>
<path d="M108.044 80.8433L109.9 81.7054L111.966 82.757C111.966 82.757 115.172 83.3546 115.219 83.3437L114.952 83.8558C118.931 84.3831 131.473 84.9361 133.533 85.1833C134.773 85.3319 135.967 86.989 136.718 88.2824L135.699 89.0229C135.699 89.0229 124.747 88.5043 124.769 88.7512C124.775 88.829 125.084 89.9966 125.564 91.5241C118.799 92.0098 109.326 91.9633 107.567 88.97C106.123 86.5142 107.53 82.9891 108.044 80.8433Z" fill="#F9B59D"/>
<path d="M106.629 61.2586C108.985 60.9082 115.203 60.6663 115.203 60.6663C115.203 60.6663 116.027 60.8987 115.764 60.7676C122.63 62.0693 123.389 67.5366 123.389 67.5366L126.74 83.3331L130.47 83.55C131.677 86.0058 130.79 92.629 130.79 92.629L112.727 94.8152C112.727 94.8152 108.823 95.5062 105.519 90.959C103.335 87.9506 102.592 78.7137 102.593 71.9647C102.593 71.9647 102.968 61.8029 106.629 61.2586Z" fill="#FD7583"/>
<path d="M157.226 73.4902H140.026L134.028 89.8927H151.227L157.226 73.4902Z" fill="#E23E3D"/>
<path d="M134.028 89.8927H134.926L140.923 73.4902H140.026L134.028 89.8927Z" fill="#CC2323"/>
<path d="M145.981 81.1691C145.743 81.9225 145.918 82.6675 146.371 82.8331C146.825 82.9986 147.387 82.5223 147.625 81.7686C147.864 81.0153 147.69 80.2699 147.235 80.1044C146.781 79.9388 146.22 80.4158 145.981 81.1691Z" fill="#E2F2F1"/>
<path d="M128.343 88.5679H134.767V89.8927H128.343C128.002 89.8927 127.726 89.596 127.726 89.2305C127.726 88.8646 128.002 88.5679 128.343 88.5679Z" fill="#CC2323"/>
<path d="M129.97 89.2305H134.028V89.0229H129.97V89.2305Z" fill="#E23E3D"/>
<path d="M112.702 83.6067C112.722 83.615 112.746 83.6169 112.768 83.6112C112.829 83.5957 112.868 83.53 112.853 83.4638C112.834 83.3772 110.946 74.7599 110.142 69.3373C110.132 69.2703 110.075 69.2254 110.012 69.2356C109.95 69.2462 109.908 69.3089 109.918 69.3758C110.722 74.8075 112.612 83.4336 112.631 83.5198C112.64 83.5613 112.668 83.5927 112.702 83.6067Z" fill="#21111D"/>
<path d="M124.385 83.4651C124.408 83.4746 124.434 83.4761 124.46 83.4674C124.519 83.4474 124.553 83.3782 124.534 83.3136C124.506 83.2175 121.705 73.6749 121.121 70.3758C121.107 70.3092 121.049 70.2658 120.987 70.2783C120.924 70.2911 120.884 70.355 120.896 70.4215C121.483 73.735 124.289 83.2913 124.317 83.3876C124.327 83.4247 124.353 83.4523 124.385 83.4651Z" fill="#21111D"/>
<path d="M112.999 65.2963C113.087 65.3061 113.178 65.3144 113.268 65.3212C113.321 65.3254 113.367 65.2831 113.369 65.2267C113.374 65.1712 113.336 65.1228 113.282 65.1183C109.354 64.8219 108.623 61.7337 108.617 61.7027C108.609 61.6487 108.56 61.6109 108.509 61.6203C108.458 61.6294 108.424 61.6789 108.431 61.7337C108.436 61.7659 109.16 64.8699 112.999 65.2963Z" fill="#21111D"/>
<path d="M125.187 81.1876C125.238 81.2084 125.297 81.1872 125.326 81.1347L126.092 79.7259L126.082 79.6783L123.502 67.5139C123.486 67.4042 123.261 65.9868 122.142 64.4234C121.093 62.958 119.024 61.0945 115.125 60.5373C115.063 60.529 115.006 60.5759 114.998 60.6428C114.989 60.7101 115.034 60.7713 115.096 60.7804C118.91 61.3254 120.93 63.1375 121.954 64.5618C123.063 66.1055 123.274 67.5403 123.276 67.5551L123.277 67.5641L125.85 79.6858L125.13 81.0114C125.097 81.0697 125.115 81.1449 125.169 81.1789L125.187 81.1876Z" fill="#21111D"/>
<path d="M129.226 81.2324C129.285 81.2558 129.35 81.2252 129.373 81.1632C129.397 81.1005 129.367 81.0291 129.309 81.0041L126.013 79.5923C125.953 79.57 125.888 79.598 125.865 79.6607C125.841 79.7235 125.87 79.7945 125.928 79.8199L129.225 81.2317L129.226 81.2324Z" fill="#21111D"/>
<path d="M130.47 83.55C130.47 83.55 131.661 86.5709 130.79 92.629L126.431 90.118L127.726 85.5919L130.47 83.55Z" fill="#FD7583"/>
<path d="M108.762 83.7153C108.775 83.7209 108.79 83.724 108.806 83.7232C108.969 83.7179 125.109 83.1978 130.389 83.6658C130.52 84.0381 131.115 85.9609 130.948 89.48C130.945 89.5473 130.994 89.6051 131.057 89.6085C131.12 89.6119 131.172 89.5597 131.175 89.4924C131.365 85.505 130.606 83.5811 130.574 83.5013L130.546 83.4344L130.479 83.4276C125.26 82.948 108.963 83.4734 108.799 83.4783C108.736 83.4805 108.686 83.5369 108.689 83.6049C108.691 83.6559 108.72 83.6986 108.762 83.7153Z" fill="#21111D"/>
<path d="M116.142 51.479L116.269 56.8094C116.269 56.8094 116.378 58.5213 114.987 58.7745L115.302 61.0534C115.42 61.9009 114.967 62.7275 114.213 63.0072C113.843 63.1441 113.402 63.2484 112.899 63.2624C111.303 63.307 110.408 62.0456 110.26 61.4068C110.11 60.768 110.436 57.6867 110.436 57.6867L110.351 56.1793L110.391 50.3284L116.142 51.479Z" fill="#FE9F73"/>
<path d="M111.713 57.4089C111.713 57.4089 111.878 60.2745 115.219 60.4555L114.987 58.7746C114.987 58.7746 112.834 59.3015 111.713 57.4089Z" fill="#F07162"/>
<path d="M112.356 54.3818C112.34 54.3825 112.323 54.3761 112.309 54.3633C112.283 54.3368 112.28 54.2918 112.305 54.2627C112.313 54.2518 113.204 53.2217 114.058 53.9214C114.087 53.9456 114.093 53.9902 114.069 54.0216C114.047 54.0533 114.006 54.0594 113.977 54.0352C113.22 53.4149 112.437 54.3198 112.403 54.3587C112.392 54.3735 112.374 54.3814 112.356 54.3818Z" fill="#49263E"/>
<path d="M110.045 53.6965L111.489 53.9777L111.754 54.2585C111.754 54.2585 111.568 51.6788 111.285 51.1783C111.003 50.6779 110.045 53.6965 110.045 53.6965Z" fill="#4C222E"/>
<path d="M115.087 53.8772C115.068 53.8776 115.049 53.8696 115.035 53.8541C115.01 53.8246 115.012 53.7797 115.04 53.7528C115.066 53.7271 115.686 53.1273 116.096 53.4852C116.123 53.5102 116.128 53.5551 116.106 53.5857C116.083 53.6164 116.04 53.6209 116.012 53.596C115.691 53.3155 115.135 53.853 115.129 53.8587C115.117 53.8708 115.101 53.8768 115.087 53.8772Z" fill="#49263E"/>
<path d="M113.707 54.6333C113.71 54.7516 113.623 54.8499 113.513 54.8529C113.403 54.856 113.31 54.7626 113.308 54.6443C113.305 54.5263 113.393 54.4277 113.503 54.4246C113.613 54.4216 113.703 54.515 113.707 54.6333Z" fill="black"/>
<path d="M115.822 54.3595C115.825 54.4782 115.738 54.5765 115.628 54.5795C115.519 54.5825 115.426 54.4891 115.423 54.3712C115.421 54.2525 115.508 54.1542 115.618 54.1512C115.728 54.1482 115.821 54.2415 115.822 54.3595Z" fill="black"/>
<path d="M112.058 54.6046C112.076 55.3149 111.553 55.9049 110.892 55.9234C110.23 55.9416 109.681 55.3814 109.665 54.6715C109.647 53.9617 110.169 53.3716 110.83 53.3527C111.49 53.3346 112.041 53.8948 112.058 54.6046Z" fill="#FE9F73"/>
<path d="M110.669 55.357C110.42 55.3638 110.25 55.168 110.189 54.9692C110.119 54.7333 110.188 54.5009 110.364 54.3765C110.625 54.1924 110.869 54.299 110.993 54.3826C110.937 54.2382 110.854 54.1342 110.744 54.073C110.505 53.9399 110.214 54.0499 110.212 54.0511C110.195 54.0579 110.176 54.048 110.169 54.0291C110.163 54.011 110.172 53.9902 110.189 53.9834C110.202 53.9789 110.509 53.8624 110.774 54.0091C110.927 54.0938 111.034 54.2488 111.092 54.4687L111.122 54.5923L111.036 54.5047C111.024 54.4918 110.732 54.203 110.401 54.4362C110.217 54.5655 110.207 54.7923 110.253 54.9473C110.301 55.1079 110.439 55.2924 110.666 55.2856H110.673C110.691 55.2848 110.707 55.3003 110.707 55.32C110.709 55.3396 110.694 55.3563 110.676 55.357H110.669Z" fill="#F07162"/>
<path d="M114.446 56.0586C114.431 56.0586 114.418 56.0495 114.414 56.0348C114.408 56.0163 114.417 55.9959 114.434 55.989L115.094 55.7339L114.843 54.0553C114.841 54.036 114.852 54.0178 114.872 54.0144C114.889 54.011 114.907 54.0246 114.91 54.0443L115.169 55.7812L114.456 56.0563L114.446 56.0586Z" fill="#F07162"/>
<path d="M113.946 56.7685C113.966 56.7632 115.261 56.6948 115.261 56.6948C115.261 56.6948 115.113 57.275 114.633 57.3019C114.151 57.3287 113.946 56.7685 113.946 56.7685Z" fill="#FBFDFC"/>
<path d="M110.046 53.6967C110.046 53.6967 109.581 51.2054 110.273 50.2529C110.964 49.3003 115.019 47.5536 115.527 48.0061C116.035 48.4589 115.552 49.0387 115.552 49.0387C115.552 49.0387 117.183 48.4268 117.592 49.9822C118.003 51.5376 114.483 52.3027 112.354 51.6283C112.354 51.6283 110.97 52.1039 110.046 53.6967Z" fill="#4C222E"/>
<path d="M109.579 94.451C109.848 94.5599 110.1 94.6446 110.332 94.7111C111.728 95.1091 112.703 94.9436 112.745 94.9364C112.808 94.9254 112.848 94.8623 112.838 94.7958C112.828 94.7292 112.769 94.6839 112.708 94.6948C112.699 94.6964 111.731 94.8585 110.379 94.4707C109.132 94.1139 107.292 93.2006 105.609 90.8836C103.497 87.975 102.725 79.0197 102.707 72.2348C102.707 72.1671 102.655 72.1123 102.592 72.1123C102.529 72.1127 102.479 72.1679 102.479 72.2352C102.498 79.059 103.282 88.0766 105.43 91.0344C106.842 92.9803 108.368 93.9597 109.579 94.451Z" fill="#21111D"/>
<path d="M145.33 226.398C145.24 226.325 143.245 224.599 143.088 224.517C141.623 225.582 141.817 228.458 140.202 229.628C141.25 229.866 141.994 230.017 142.29 230.063L143.189 232.203L143.313 232.764C143.371 233.03 143.662 233.224 143.962 233.197C144.263 233.168 144.458 232.932 144.4 232.666L144.452 232.901C144.511 233.167 144.802 233.359 145.102 233.333C145.401 233.306 145.598 233.068 145.539 232.803C145.598 233.068 145.888 233.261 146.189 233.235C146.49 233.208 146.685 232.97 146.626 232.704L146.575 232.469C146.633 232.735 146.924 232.928 147.224 232.901C147.242 232.899 147.26 232.898 147.276 232.894C147.295 232.891 147.314 232.887 147.333 232.882C147.617 232.808 147.738 232.671 147.767 232.526C147.827 232.222 147.396 230.541 147.207 229.749C146.931 228.508 146.406 227.272 145.33 226.398Z" fill="#F9956E"/>
<path d="M146.635 232.723L146.664 232.716C146.707 232.699 146.729 232.649 146.713 232.601L145.531 229.192C145.514 229.146 145.466 229.122 145.424 229.139C145.38 229.157 145.358 229.209 145.374 229.255L146.556 232.665C146.569 232.701 146.601 232.723 146.635 232.723Z" fill="#F07162"/>
<path d="M145.557 232.997L145.586 232.992C145.628 232.975 145.651 232.923 145.634 232.876L144.562 229.784C144.546 229.736 144.497 229.713 144.455 229.73C144.411 229.748 144.389 229.8 144.405 229.845L145.479 232.939C145.491 232.975 145.523 232.997 145.557 232.997Z" fill="#F07162"/>
<path d="M140.866 222.547C142.447 223.93 145.29 226.421 145.875 226.987C146.697 227.781 142.864 231.203 142.864 231.203C142.864 231.203 138.428 228.681 135.989 226.88L140.866 222.547Z" fill="#F9956E"/>
<path d="M144.437 232.932L144.467 232.928C144.509 232.91 144.531 232.859 144.515 232.811L143.653 230.326C143.637 230.278 143.589 230.256 143.546 230.272C143.503 230.291 143.48 230.342 143.497 230.388L144.358 232.874C144.372 232.91 144.404 232.932 144.437 232.932Z" fill="#F07162"/>
<path d="M156.902 230.103C156.929 230.103 156.958 230.094 156.979 230.072L158.743 228.433C158.792 228.387 158.798 228.305 158.754 228.251C158.712 228.196 158.636 228.191 158.585 228.237L156.822 229.877C156.773 229.924 156.767 230.006 156.811 230.06C156.834 230.089 156.868 230.103 156.902 230.103Z" fill="#21111D"/>
<path d="M121.222 233.178C121.222 233.178 122.626 228.615 137.569 229.463C154.653 230.431 166.29 227.264 169.315 233.178L145.64 242.615L121.222 233.178Z" fill="#FF424D"/>
<path d="M148.097 241.308C148.097 241.308 134.54 232.539 129.786 231.222C125.031 229.905 121.738 231.641 121.222 233.178C120.704 234.715 120.219 238.862 123.381 241.308C124.748 242.366 140.386 247.359 144.521 248.526C144.521 248.526 148.358 246.792 148.097 241.308Z" fill="#FF424D"/>
<path d="M145.227 239.623C145.268 239.623 145.307 239.601 145.33 239.56C145.363 239.499 145.345 239.42 145.288 239.383C132.308 231.052 128.054 230.64 127.88 230.626C127.812 230.62 127.756 230.675 127.752 230.746C127.748 230.817 127.796 230.879 127.862 230.883C127.905 230.888 132.258 231.319 145.165 239.604C145.184 239.617 145.206 239.623 145.227 239.623Z" fill="#21111D"/>
<path d="M141.765 249.945L147.896 246.592L144.948 240.375L139.947 243.111C139.947 243.111 131.677 243.036 131.281 243.45C130.885 243.866 139.844 250.996 141.765 249.945Z" fill="#FE9F73"/>
<path d="M143.87 248.794C142.11 246.71 141.153 243.688 140.855 242.615L139.947 243.111C139.947 243.111 131.677 243.036 131.281 243.45C130.885 243.866 139.844 250.996 141.765 249.945L143.87 248.794Z" fill="#472A31"/>
<path d="M142.44 241.308C142.44 241.308 155.997 232.539 160.752 231.222C165.506 229.905 168.798 231.641 169.315 233.178C169.832 234.715 170.318 238.862 167.157 241.308C165.789 242.366 149.054 247.679 144.92 248.844C144.92 248.844 142.18 246.792 142.44 241.308Z" fill="#FF424D"/>
<path d="M144.92 248.974C144.96 248.974 144.997 248.953 145.02 248.915C145.056 248.855 145.041 248.775 144.986 248.737C142.699 247.117 142.567 242.052 142.561 241.382C143.509 240.79 155.287 233.46 159.985 231.57C160.046 231.545 160.077 231.471 160.054 231.404C160.032 231.338 159.963 231.304 159.9 231.329C155.01 233.296 142.506 241.118 142.38 241.196L142.321 241.234L142.319 241.307C142.318 241.544 142.306 247.147 144.854 248.952C144.875 248.966 144.896 248.974 144.92 248.974Z" fill="#21111D"/>
<path d="M122.626 233.046C122.664 233.046 122.701 233.027 122.724 232.992C122.732 232.981 123.208 232.318 124.76 232.339C124.829 232.342 124.88 232.283 124.882 232.211C124.882 232.14 124.829 232.082 124.763 232.082C123.066 232.058 122.55 232.811 122.528 232.842C122.49 232.901 122.503 232.981 122.557 233.022C122.578 233.038 122.602 233.046 122.626 233.046Z" fill="#21111D"/>
<path d="M123.398 233.69C123.428 233.69 123.461 233.677 123.484 233.65C123.493 233.641 124.055 233.062 125.587 233.324C125.652 233.336 125.713 233.288 125.724 233.217C125.736 233.148 125.69 233.082 125.626 233.069C123.948 232.783 123.336 233.444 123.311 233.473C123.264 233.525 123.267 233.605 123.314 233.655C123.337 233.679 123.368 233.69 123.398 233.69Z" fill="#21111D"/>
<path d="M148.414 195.318C148.414 195.318 147.701 202.198 146.745 202.267C145.787 202.335 147.405 210.391 149.94 206.444C150.828 205.061 150.788 196.011 148.669 194.077C146.548 192.141 148.414 195.318 148.414 195.318Z" fill="#49263E"/>
<path d="M148.761 193.592C148.761 193.592 149.642 200.09 148.849 201.246C148.849 201.246 148.462 201.862 147.516 201.895L147.591 205.714L143.314 205.189L143.172 194.327C143.172 194.327 144.391 191.64 144.392 191.752C144.393 191.863 148.761 193.592 148.761 193.592Z" fill="#FE9F73"/>
<path d="M147.459 199.014C147.446 199.014 147.436 199 147.431 198.982C147.429 198.959 147.437 198.937 147.452 198.932C147.628 198.873 147.735 198.54 147.766 198.433C147.512 198.233 147.357 197.972 147.301 197.655C147.21 197.139 147.421 196.668 147.43 196.648C147.439 196.629 147.456 196.624 147.468 196.638C147.481 196.651 147.485 196.676 147.475 196.695C147.474 196.699 147.27 197.156 147.354 197.636C147.406 197.937 147.561 198.186 147.813 198.376L147.835 198.393L147.827 198.429C147.822 198.449 147.704 198.932 147.465 199.013L147.459 199.014Z" fill="#F07162"/>
<path d="M147.534 203.193L147.516 201.895C147.516 201.895 145.47 201.796 144.204 200.966C144.204 200.966 145.929 202.698 147.534 203.193Z" fill="#F07162"/>
<path d="M144.63 196.86C144.611 196.86 144.592 196.852 144.577 196.838C144.545 196.806 144.543 196.755 144.573 196.72C144.583 196.709 145.56 195.605 146.476 196.375C146.51 196.403 146.516 196.457 146.49 196.492C146.463 196.528 146.415 196.534 146.381 196.507C145.576 195.83 144.722 196.792 144.686 196.833C144.671 196.851 144.65 196.86 144.63 196.86Z" fill="#49263E"/>
<path d="M147.811 196.638C147.791 196.638 147.768 196.629 147.753 196.61C147.724 196.575 147.728 196.523 147.76 196.493C147.788 196.465 148.468 195.822 148.91 196.218C148.943 196.247 148.948 196.299 148.92 196.336C148.892 196.37 148.844 196.375 148.812 196.345C148.471 196.043 147.868 196.611 147.862 196.617C147.848 196.63 147.83 196.638 147.811 196.638Z" fill="#49263E"/>
<path d="M146.183 197.3C146.185 197.427 146.09 197.533 145.971 197.534C145.852 197.536 145.755 197.433 145.752 197.306C145.751 197.178 145.846 197.073 145.965 197.071C146.084 197.07 146.182 197.172 146.183 197.3Z" fill="black"/>
<path d="M148.706 197.268C148.707 197.395 148.612 197.501 148.493 197.503C148.375 197.504 148.276 197.402 148.275 197.274C148.273 197.147 148.369 197.043 148.487 197.04C148.606 197.038 148.704 197.14 148.706 197.268Z" fill="black"/>
<path d="M146.397 199.401C146.422 199.399 147.921 199.577 147.921 199.577C147.921 199.577 147.65 200.213 147.092 200.149C146.535 200.084 146.397 199.401 146.397 199.401Z" fill="#FBFDFC"/>
<path d="M146.908 193.718L145.869 192.171C145.869 192.171 147.537 193.291 147.399 193.338C147.26 193.384 146.908 193.718 146.908 193.718Z" fill="#FE9F73"/>
<path d="M143.792 192.984C143.792 192.984 144.09 195.408 149.496 195.898C149.496 195.898 150.752 192.311 146.825 191.113C142.9 189.913 142.544 193.146 142.623 193.116C142.703 193.086 143.792 192.984 143.792 192.984Z" fill="#49263E"/>
<path d="M144.608 194.343C144.608 194.343 143.609 195.937 143.146 197.087C143.146 197.087 144.951 207.238 141.311 206.669L140.661 206.66C137.441 206.612 139.669 199.131 139.723 195.161C139.759 192.674 142.569 190.149 144.398 191.664C146.226 193.179 144.608 194.343 144.608 194.343Z" fill="#49263E"/>
<path d="M144.071 198.33C144.08 199.045 143.547 199.634 142.88 199.644C142.213 199.654 141.665 199.082 141.655 198.366C141.645 197.649 142.179 197.06 142.847 197.051C143.513 197.04 144.061 197.613 144.071 198.33Z" fill="#FE9F73"/>
<path d="M142.783 199.148C142.531 199.153 142.358 198.95 142.299 198.747C142.23 198.506 142.303 198.27 142.485 198.145C142.743 197.967 142.981 198.066 143.112 198.15C143.057 198.013 142.977 197.914 142.871 197.854C142.632 197.717 142.341 197.824 142.339 197.825C142.318 197.832 142.296 197.821 142.29 197.799C142.283 197.779 142.293 197.754 142.314 197.747C142.327 197.742 142.64 197.627 142.908 197.78C143.062 197.868 143.169 198.027 143.225 198.251L143.26 198.395L143.16 198.291C143.148 198.279 142.859 197.986 142.527 198.214C142.343 198.342 142.33 198.567 142.374 198.723C142.421 198.885 142.557 199.071 142.789 199.065C142.81 199.065 142.829 199.082 142.829 199.106C142.829 199.129 142.812 199.148 142.791 199.148H142.783Z" fill="#F07162"/>
<path d="M149.004 192.492C149.004 192.492 150.879 194.617 150.447 200.727L149.155 194.699L149.004 192.492Z" fill="#49263E"/>
<path d="M147.748 216.448L145.143 204.701H138.046C137.292 204.701 136.253 205.234 136.209 205.256C133.361 206.885 125.523 216.16 125.914 222.005C126.269 227.309 133.381 226.256 140.47 227.484L142.045 220.449L139.483 219.713L147.748 216.448Z" fill="#7FC6A6"/>
<path d="M145.398 218.182V204.701H152.497C153.251 204.701 154.288 205.234 154.334 205.256C157.182 206.885 166.002 216.453 165.61 222.298C165.255 227.604 156.939 227.39 153.04 228.681L150.875 220.269L151.067 219.841L145.398 218.182Z" fill="#7FC6A6"/>
<path d="M156.905 220.018L156.814 234.723C156.814 234.723 144.419 237.155 133.382 234.002C133.112 233.924 133.899 221.849 133.899 221.849C133.899 221.849 133.899 219.507 135.05 218.783C136.2 218.058 145.588 213.586 145.812 213.586C146.036 213.586 156.905 220.018 156.905 220.018Z" fill="#7FC6A6"/>
<path d="M145.02 208.787C145.09 208.787 145.149 208.728 145.153 208.652C145.158 208.573 145.102 208.504 145.029 208.499C140.956 208.225 139.627 205.229 139.614 205.2C139.583 205.127 139.504 205.096 139.436 205.128C139.369 205.162 139.339 205.247 139.37 205.319C139.383 205.351 140.772 208.5 145.011 208.785L145.02 208.787Z" fill="#21111D"/>
<path d="M149.509 204.701H140.53C140.53 204.701 142.154 207.718 145.256 207.705C146.68 207.699 148.201 207.137 149.509 204.701Z" fill="#FE9F73"/>
<path d="M143.977 224.144C143.408 223.525 143.934 222.737 143.934 222.737C143.723 221.8 143.956 221.389 143.956 221.389C143.956 221.389 146.352 222.153 147.712 222.693C148.48 222.569 148.751 222.167 148.751 222.167L148.772 222.2C148.786 221.486 148.805 220.592 148.805 220.493C148.805 220.321 149.059 220.049 149.455 220.589C149.853 221.128 150.62 222.577 150.62 222.577L152.603 221.326L154.216 227.319C154.216 227.319 149.404 228.05 148.663 228.107C147.922 228.163 145.345 227.511 144.578 226.829C143.811 226.147 143.977 225.538 143.977 225.538C143.408 224.801 143.977 224.144 143.977 224.144Z" fill="#F78C63"/>
<path d="M149.202 220.181V222.036C149.202 222.036 148.692 222.846 147.713 222.693L146.97 222.397L147.555 219.701L149.202 220.181Z" fill="#FD7583"/>
<path d="M145.564 223.657C145.602 223.657 145.637 223.632 145.649 223.591C145.665 223.541 145.639 223.487 145.592 223.471C144.935 223.243 143.989 222.66 143.98 222.654C143.938 222.629 143.882 222.644 143.858 222.69C143.833 222.736 143.848 222.794 143.891 222.821C143.93 222.844 144.862 223.418 145.538 223.653L145.564 223.657Z" fill="#F07162"/>
<path d="M145.564 224.871C145.607 224.871 145.645 224.84 145.652 224.793C145.661 224.741 145.63 224.692 145.581 224.681C144.754 224.516 144.03 224.065 144.023 224.062C143.979 224.035 143.924 224.049 143.899 224.095C143.874 224.141 143.889 224.2 143.932 224.227C143.962 224.246 144.69 224.698 145.548 224.87L145.564 224.871Z" fill="#F07162"/>
<path d="M145.366 226.256C145.407 226.256 145.445 226.224 145.454 226.18C145.464 226.128 145.433 226.078 145.385 226.067C144.675 225.902 144.031 225.461 144.025 225.457C143.984 225.427 143.929 225.442 143.902 225.485C143.876 225.53 143.888 225.589 143.929 225.618C143.956 225.637 144.606 226.081 145.347 226.254L145.366 226.256Z" fill="#F07162"/>
<path d="M151.176 221.436L153.907 220.706C153.907 220.706 155.447 224.807 155.447 224.944C155.447 225.081 154.677 228.698 154.58 228.681C154.484 228.664 153.609 227.692 153.609 227.692L151.176 221.436Z" fill="#4CB7D8"/>
<path d="M156.195 218.763L157.542 218.532C157.631 218.518 157.691 218.428 157.676 218.334C157.662 218.238 157.58 218.173 157.49 218.189L156.352 218.384L153.819 214.192C153.771 214.111 153.669 214.087 153.595 214.141C153.518 214.193 153.498 214.302 153.546 214.382L156.195 218.763Z" fill="#21111D"/>
<path d="M155.69 208.532C155.648 208.532 155.607 208.51 155.58 208.471C154.571 206.913 153.71 206.91 153.71 206.91C153.637 206.91 153.577 206.847 153.577 206.767C153.575 206.688 153.635 206.624 153.709 206.624H153.71C153.759 206.624 154.724 206.645 155.8 208.306C155.843 208.372 155.828 208.461 155.767 208.507C155.743 208.525 155.717 208.532 155.69 208.532Z" fill="#21111D"/>
<path d="M155.403 209.994C155.354 209.994 155.308 209.966 155.284 209.915C154.51 208.244 153.653 208.079 153.646 208.077C153.573 208.064 153.523 207.992 153.533 207.914C153.545 207.836 153.611 207.781 153.684 207.794C153.725 207.8 154.68 207.967 155.523 209.786C155.555 209.858 155.529 209.944 155.463 209.98C155.444 209.989 155.423 209.994 155.403 209.994Z" fill="#21111D"/>
<path d="M147.855 221.69C147.818 221.698 147.78 221.681 147.76 221.642C147.735 221.597 147.751 221.538 147.794 221.512C148.392 221.143 149.206 220.364 149.213 220.356C149.25 220.321 149.307 220.324 149.339 220.364C149.373 220.403 149.37 220.463 149.333 220.499C149.298 220.53 148.498 221.299 147.882 221.679L147.855 221.69Z" fill="#F07162"/>
<path d="M148.089 222.877C148.047 222.887 148.005 222.863 147.988 222.819C147.969 222.77 147.991 222.715 148.037 222.694C148.814 222.35 149.436 221.748 149.443 221.742C149.48 221.706 149.536 221.709 149.568 221.748C149.602 221.788 149.599 221.849 149.562 221.884C149.536 221.909 148.911 222.514 148.104 222.871L148.089 222.877Z" fill="#F07162"/>
<path d="M148.549 224.188C148.509 224.197 148.466 224.175 148.449 224.133C148.43 224.084 148.449 224.027 148.494 224.007C149.157 223.687 149.703 223.114 149.707 223.108C149.742 223.071 149.8 223.071 149.835 223.109C149.869 223.147 149.869 223.207 149.833 223.244C149.81 223.27 149.26 223.848 148.568 224.182L148.549 224.188Z" fill="#F07162"/>
<path d="M136.356 218.67L134.993 218.743C134.904 218.748 134.828 218.674 134.823 218.578C134.819 218.48 134.888 218.4 134.977 218.393L136.129 218.334L137.802 213.67C137.834 213.58 137.928 213.535 138.012 213.57C138.096 213.604 138.136 213.705 138.104 213.795L136.356 218.67Z" fill="#21111D"/>
<path d="M142.046 220.449L140.642 227.672C140.642 227.672 137.754 225.147 137.754 224.871C137.754 224.596 138.668 221.238 138.765 221.173C138.86 221.107 142.046 220.449 142.046 220.449Z" fill="#4CB7D8"/>
<path d="M140.736 227.854L140.593 227.845C140.56 227.842 137.192 227.612 133.302 225.858C133.219 225.821 133.181 225.719 133.216 225.629C133.249 225.541 133.345 225.498 133.428 225.536C136.818 227.066 139.797 227.422 140.47 227.484L141.673 220.682L136.19 218.666C136.105 218.636 136.06 218.537 136.089 218.446C136.118 218.354 136.209 218.305 136.294 218.337L142.045 220.449L140.736 227.854Z" fill="#21111D"/>
<path d="M151.89 227.854L152.032 227.845C152.066 227.842 155.434 227.612 159.324 225.858C159.407 225.821 159.445 225.719 159.41 225.629C159.376 225.541 159.281 225.498 159.197 225.536C155.808 227.066 152.829 227.422 152.155 227.484L150.953 220.682L156.435 218.666C156.521 218.636 156.566 218.537 156.537 218.446C156.507 218.354 156.416 218.305 156.332 218.337L150.581 220.449L151.89 227.854Z" fill="#21111D"/>
<path d="M133.025 235.643H158.85C159.36 235.643 159.773 235.199 159.773 234.651V219.175C159.773 218.627 159.36 218.182 158.85 218.182H133.025C132.515 218.182 132.101 218.627 132.101 219.175V234.651C132.101 235.199 132.515 235.643 133.025 235.643Z" fill="#49263E"/>
<path d="M144.549 225.442C144.549 224.786 145.044 224.254 145.654 224.254C146.265 224.254 146.76 224.786 146.76 225.442C146.76 226.097 146.265 226.629 145.654 226.629C145.044 226.629 144.549 226.097 144.549 225.442Z" fill="white"/>
<path d="M289.751 233.932C289.751 233.932 286.725 242.102 289.261 248.281L231.128 248.805L225.762 248.281L221.035 245.135V240.32L222.349 236.341L226.64 233.932H289.751Z" fill="white"/>
<path d="M228.404 249.601H291.211C291.621 249.601 291.953 249.244 291.953 248.805C291.953 248.366 291.621 248.01 291.211 248.01H228.404C224.614 248.01 221.529 244.937 221.529 241.158C221.529 237.382 224.614 234.309 228.404 234.309H291.211C291.621 234.309 291.953 233.953 291.953 233.513C291.953 233.074 291.621 232.718 291.211 232.718H228.404C223.796 232.718 220.048 236.504 220.048 241.158C220.048 245.814 223.796 249.601 228.404 249.601Z" fill="#FF424D"/>
<path d="M288.895 241.335H258.073C257.981 241.335 257.909 241.256 257.909 241.158C257.909 241.061 257.981 240.982 258.073 240.982H288.895C288.988 240.982 289.059 241.061 289.059 241.158C289.059 241.256 288.988 241.335 288.895 241.335Z" fill="#AAC9F8"/>
<path d="M253.733 241.335H223.788C223.697 241.335 223.624 241.256 223.624 241.158C223.624 241.061 223.697 240.982 223.788 240.982H253.733C253.823 240.982 253.898 241.061 253.898 241.158C253.898 241.256 253.823 241.335 253.733 241.335Z" fill="#AAC9F8"/>
<path d="M239.956 244.502H224.593C224.502 244.502 224.429 244.423 224.429 244.326C224.429 244.228 224.502 244.149 224.593 244.149H239.956C240.049 244.149 240.12 244.228 240.12 244.326C240.12 244.423 240.049 244.502 239.956 244.502Z" fill="#AAC9F8"/>
<path d="M288.895 244.502H242.211C242.121 244.502 242.046 244.423 242.046 244.326C242.046 244.228 242.121 244.149 242.211 244.149H288.895C288.988 244.149 289.059 244.228 289.059 244.326C289.059 244.423 288.988 244.502 288.895 244.502Z" fill="#AAC9F8"/>
<path d="M231.459 218.176C231.459 218.176 234.268 225.758 231.912 231.493L285.864 231.979L290.843 231.493L295.23 228.574V224.106L294.012 220.413L290.029 218.176H231.459Z" fill="white"/>
<path d="M288.391 232.718H230.102C229.723 232.718 229.413 232.387 229.413 231.979C229.413 231.571 229.723 231.241 230.102 231.241H288.391C291.91 231.241 294.772 228.388 294.772 224.883C294.772 221.378 291.91 218.526 288.391 218.526H230.102C229.723 218.526 229.413 218.195 229.413 217.787C229.413 217.379 229.723 217.048 230.102 217.048H288.391C292.668 217.048 296.146 220.564 296.146 224.883C296.146 229.203 292.668 232.718 288.391 232.718Z" fill="#258D8C"/>
<path d="M260.856 225.06H232.251C232.161 225.06 232.087 224.982 232.087 224.884C232.087 224.786 232.161 224.706 232.251 224.706H260.856C260.948 224.706 261.02 224.786 261.02 224.884C261.02 224.982 260.948 225.06 260.856 225.06Z" fill="#AAC9F8"/>
<path d="M292.676 225.06H264.885C264.795 225.06 264.721 224.982 264.721 224.884C264.721 224.786 264.795 224.706 264.885 224.706H292.676C292.766 224.706 292.84 224.786 292.84 224.884C292.84 224.982 292.766 225.06 292.676 225.06Z" fill="#AAC9F8"/>
<path d="M291.929 227.999H277.669C277.579 227.999 277.505 227.921 277.505 227.823C277.505 227.724 277.579 227.645 277.669 227.645H291.929C292.019 227.645 292.093 227.724 292.093 227.823C292.093 227.921 292.019 227.999 291.929 227.999Z" fill="#AAC9F8"/>
<path d="M291.929 222.12H232.251C232.161 222.12 232.087 222.041 232.087 221.943C232.087 221.846 232.161 221.765 232.251 221.765H291.929C292.019 221.765 292.093 221.846 292.093 221.943C292.093 222.041 292.019 222.12 291.929 222.12Z" fill="#AAC9F8"/>
<path d="M291.211 249.777H228.404C223.706 249.777 219.884 245.91 219.884 241.158C219.884 236.407 223.706 232.542 228.404 232.542H291.211C291.712 232.542 292.117 232.976 292.117 233.513C292.117 234.049 291.712 234.485 291.211 234.485C291.121 234.485 291.047 234.406 291.047 234.309C291.047 234.211 291.121 234.131 291.211 234.131C291.532 234.131 291.789 233.854 291.789 233.513C291.789 233.171 291.532 232.894 291.211 232.894H228.404C223.888 232.894 220.212 236.602 220.212 241.158C220.212 245.717 223.888 249.424 228.404 249.424H291.211C291.532 249.424 291.789 249.145 291.789 248.805C291.789 248.463 291.532 248.186 291.211 248.186C291.121 248.186 291.047 248.107 291.047 248.01C291.047 247.912 291.121 247.833 291.211 247.833C291.712 247.833 292.117 248.268 292.117 248.805C292.117 249.341 291.712 249.777 291.211 249.777Z" fill="#21111D"/>
<path d="M288.392 232.894H230.1C229.631 232.894 229.25 232.484 229.25 231.979C229.25 231.475 229.631 231.064 230.1 231.064C230.193 231.064 230.267 231.143 230.267 231.241C230.267 231.338 230.193 231.419 230.1 231.419C229.814 231.419 229.578 231.669 229.578 231.979C229.578 232.29 229.814 232.542 230.1 232.542H288.392C292.578 232.542 295.983 229.105 295.983 224.883C295.983 220.662 292.578 217.226 288.392 217.226H230.1C229.814 217.226 229.578 217.478 229.578 217.787C229.578 218.097 229.814 218.349 230.1 218.349C230.193 218.349 230.267 218.428 230.267 218.526C230.267 218.623 230.193 218.702 230.1 218.702C229.631 218.702 229.25 218.291 229.25 217.787C229.25 217.283 229.631 216.872 230.1 216.872H288.392C292.759 216.872 296.311 220.466 296.311 224.883C296.311 229.3 292.759 232.894 288.392 232.894Z" fill="#21111D"/>
<path d="M281.257 237.991C281.257 237.991 283.236 243.282 282.096 247.178L280.488 244.51C280.488 244.51 279.391 245.924 278.718 247.178C278.718 247.178 277.492 238.478 275.112 237.991H281.257Z" fill="#7FC6A6"/>
<path d="M266.356 227.823C266.356 227.823 264.377 233.113 265.518 237.01L267.124 234.342C267.124 234.342 268.224 235.756 268.894 237.01C268.894 237.01 270.121 228.31 272.5 227.823H266.356Z" fill="#4CB7D8"/>
<path d="M288.895 238.168H224.593C224.502 238.168 224.429 238.089 224.429 237.991C224.429 237.894 224.502 237.813 224.593 237.813H288.895C288.988 237.813 289.06 237.894 289.06 237.991C289.06 238.089 288.988 238.168 288.895 238.168Z" fill="#AAC9F8"/>
<path d="M275.579 227.999H232.251C232.161 227.999 232.087 227.921 232.087 227.823C232.087 227.724 232.161 227.645 232.251 227.645H275.579C275.669 227.645 275.743 227.724 275.743 227.823C275.743 227.921 275.669 227.999 275.579 227.999Z" fill="#AAC9F8"/>
<path d="M241.596 242.624L244.436 244.339L247.833 240.751L247.926 240.17L247.094 233.643L240.483 234.964L241.596 242.624Z" fill="#FE9F73"/>
<path d="M246.45 244.528L237.338 245.86C237.254 245.858 237.185 245.854 237.134 245.846C236.239 245.688 236.445 245.063 236.445 245.063L240.441 241.516L240.47 241.079C240.515 240.378 241.27 240.021 241.914 240.396L243.594 241.371C243.594 241.371 247.539 241.431 247.926 240.17L248.281 243.247C248.281 243.247 248.699 244.182 246.45 244.528Z" fill="#3A1F33"/>
<path d="M229.822 243.042L232.662 244.756L236.062 241.169L236.152 240.588L235.32 234.062L228.712 235.383L229.822 243.042Z" fill="#FE9F73"/>
<path d="M234.675 244.946L225.566 246.277C225.482 246.277 225.413 246.273 225.36 246.263C224.467 246.107 224.672 245.48 224.672 245.48L228.666 241.935L228.698 241.497C228.743 240.796 229.498 240.44 230.142 240.815L231.822 241.788C231.822 241.788 235.767 241.85 236.151 240.588L236.509 243.664C236.509 243.664 236.928 244.601 234.675 244.946Z" fill="#3A1F33"/>
<path d="M252.162 216.973C252.162 216.973 263.526 217.547 266.681 216.795C269.837 216.042 270.613 205.464 267.031 198.985C263.449 192.504 250.912 212.4 250.912 212.4L252.162 216.973Z" fill="#49263E"/>
<path d="M245.131 201.264C245.131 201.264 229.308 203.908 228.849 205.878C228.389 207.849 227.074 228.796 228.057 237.733C228.057 237.733 234.088 238.179 236.97 237.429L237.787 216.955L242.64 217.051L253.334 200.977L245.131 201.264Z" fill="#3A1F33"/>
<path d="M252.83 202.495C252.83 202.495 240.576 206.208 240.117 208.178C239.659 210.148 238.353 228.844 239.336 237.78C239.336 237.78 245.819 238.179 248.702 237.429L249.478 216.872L252.276 216.978L259.056 204.168L252.83 202.495Z" fill="#49263E"/>
<path d="M260.426 177.423C260.426 177.423 265.844 177.52 267.103 178.319C268.361 179.116 274.129 189.319 275.374 193.647C275.374 193.647 272.118 196.709 267.924 196.825L266.917 194.784L267.492 198.962L256.51 202.461C252.779 203.648 248.797 203.51 245.149 202.065L244.007 201.613C244.007 201.613 244.025 181.759 247.327 179.661C250.27 177.792 256.642 176.809 260.426 177.423Z" fill="#FEBAC7"/>
<path d="M253.622 167.667V173.289C253.622 173.289 253.548 175.188 255.095 175.426L254.807 177.962C254.701 178.903 255.225 179.806 256.065 180.093C256.478 180.231 256.971 180.335 257.528 180.335C259.298 180.335 260.257 178.91 260.402 178.196C260.551 177.484 260.108 174.081 260.108 174.081L260.164 172.408L259.962 165.926L253.622 167.667Z" fill="#FE9F73"/>
<path d="M257.893 170.479C257.911 170.479 257.93 170.471 257.946 170.457C257.975 170.425 257.975 170.376 257.946 170.345C257.935 170.332 256.923 169.219 255.996 170.02C255.964 170.049 255.959 170.098 255.983 170.133C256.009 170.167 256.057 170.171 256.089 170.145C256.91 169.434 257.803 170.413 257.84 170.453C257.853 170.469 257.872 170.479 257.893 170.479Z" fill="#21111D"/>
<path d="M254.854 170.003C254.875 170.003 254.897 169.994 254.91 169.976C254.936 169.943 254.934 169.893 254.902 169.864C254.873 169.836 254.171 169.19 253.726 169.6C253.694 169.628 253.691 169.678 253.718 169.712C253.744 169.745 253.789 169.75 253.821 169.719C254.171 169.4 254.799 169.978 254.807 169.984C254.82 169.997 254.839 170.003 254.854 170.003Z" fill="#21111D"/>
<path d="M256.402 170.798C256.402 170.929 256.503 171.036 256.624 171.036C256.746 171.036 256.844 170.929 256.844 170.798C256.844 170.668 256.746 170.56 256.624 170.56C256.503 170.56 256.402 170.668 256.402 170.798Z" fill="black"/>
<path d="M254.051 170.56C254.051 170.692 254.149 170.799 254.271 170.799C254.393 170.799 254.493 170.692 254.493 170.56C254.493 170.43 254.393 170.323 254.271 170.323C254.149 170.323 254.051 170.43 254.051 170.56Z" fill="black"/>
<path d="M259.756 166.239L258.521 168.114C258.521 168.114 254.783 169.674 252.867 167.828C250.949 165.98 251.54 165.092 252.102 164.167C252.377 163.713 253.699 162.785 255.321 163.558C256.208 163.98 256.863 162.72 257.894 163.353C258.924 163.987 260.143 165.083 260.008 165.518C259.87 165.95 259.756 166.239 259.756 166.239Z" fill="#21111D"/>
<path d="M259.679 165.447C259.679 165.447 261.383 165.358 261.86 167.118C262.334 168.877 261.696 169.798 261.677 170.323C261.661 170.847 261.995 174.383 259.679 174.12L259.057 168.278L259.862 165.954L259.679 165.447Z" fill="#21111D"/>
<path d="M258.229 170.717C258.229 171.502 258.823 172.14 259.554 172.14C260.288 172.14 260.882 171.502 260.882 170.717C260.882 169.929 260.288 169.292 259.554 169.292C258.823 169.292 258.229 169.929 258.229 170.717Z" fill="#FE9F73"/>
<path d="M259.655 171.589C259.931 171.589 260.114 171.367 260.175 171.144C260.246 170.88 260.164 170.625 259.965 170.493C259.671 170.298 259.404 170.422 259.268 170.52C259.327 170.357 259.417 170.239 259.536 170.168C259.798 170.014 260.122 170.126 260.127 170.128C260.145 170.134 260.167 170.123 260.172 170.102C260.18 170.081 260.169 170.06 260.148 170.052C260.135 170.047 259.793 169.928 259.501 170.099C259.335 170.197 259.221 170.372 259.163 170.617L259.131 170.756L259.223 170.655C259.237 170.641 259.555 170.312 259.928 170.56C260.135 170.698 260.151 170.948 260.103 171.121C260.056 171.301 259.907 171.511 259.655 171.511H259.647C259.629 171.511 259.61 171.528 259.61 171.548C259.61 171.57 259.626 171.589 259.647 171.589H259.655Z" fill="#F07162"/>
<path d="M258.685 173.812C258.685 173.812 258.582 176.991 254.883 177.295L255.095 175.426C255.095 175.426 257.496 175.944 258.685 173.812Z" fill="#F07162"/>
<path d="M267.066 195.041C271.639 194.277 274.352 191.337 274.378 191.308L274.22 191.141C274.193 191.171 271.527 194.055 267.031 194.806L267.066 195.041Z" fill="#21111D"/>
<path d="M244.812 238.023C247.677 238.023 248.699 237.56 248.747 237.537L248.81 237.507L249.563 216.831L248.379 217.429L248.474 217.645L249.327 217.212L248.596 237.345C248.286 237.46 246.799 237.921 243.292 237.747L243.281 237.983C243.84 238.012 244.351 238.023 244.812 238.023Z" fill="#21111D"/>
<path d="M247.499 233.565C247.804 232.299 247.891 219.948 247.894 219.422L247.674 219.42C247.674 219.548 247.584 232.267 247.285 233.506L247.499 233.565Z" fill="#21111D"/>
<path d="M232.84 238.1C235.288 238.1 237.079 237.643 237.079 237.643L237.786 216.955L236.883 217.629L237.02 217.815L237.548 217.357L236.862 237.452C236.488 237.539 234.853 237.886 232.628 237.86L232.625 238.098C232.696 238.098 232.768 238.1 232.84 238.1Z" fill="#21111D"/>
<path d="M235.924 234.024C236.228 232.112 235.939 219.164 235.926 218.614L235.704 218.62C235.706 218.754 236.006 232.094 235.706 233.984L235.924 234.024Z" fill="#21111D"/>
<path d="M246.855 203.516L248.108 201.424C248.797 200.228 249.912 198.657 251.073 198.518C252.967 198.292 264.509 197.783 268.17 197.298L267.924 196.825C267.966 196.836 270.92 196.285 270.92 196.285L272.82 195.318L274.527 194.524C275.001 196.499 276.296 199.744 274.966 202.004C272.513 206.179 253.744 204.124 252.077 203.576L250.543 205.36L250.231 205.877C250.082 206.121 249.777 206.19 249.549 206.031C249.322 205.872 249.258 205.545 249.406 205.301L249.274 205.516C249.126 205.762 248.821 205.831 248.596 205.671C248.368 205.512 248.302 205.186 248.45 204.94C248.302 205.186 247.997 205.255 247.769 205.096C247.544 204.937 247.478 204.609 247.626 204.365L247.756 204.147C247.607 204.393 247.303 204.463 247.078 204.303L247.051 204.283L247.043 204.277L247.03 204.267V204.266L247.027 204.264C246.998 204.237 246.971 204.206 246.948 204.173C246.68 203.825 246.855 203.516 246.855 203.516Z" fill="#FE9F73"/>
<path d="M267.866 196.988L267.938 196.986C271.666 196.893 275.412 193.814 275.452 193.783L275.52 193.726L273.155 188.1L272.953 188.198L275.245 193.652C274.723 194.065 271.358 196.629 268.004 196.746L266.986 194.529L266.788 194.633L267.866 196.988Z" fill="#21111D"/>
<path d="M269.487 199.237C269.509 199.241 269.53 199.237 269.551 199.222C269.583 199.194 269.588 199.145 269.564 199.111L268.218 197.254C268.194 197.219 268.147 197.213 268.115 197.239C268.083 197.266 268.078 197.315 268.102 197.35L269.445 199.208C269.458 199.222 269.471 199.232 269.487 199.237Z" fill="#F07162"/>
<path d="M247.542 204.452C247.571 204.458 247.6 204.447 247.619 204.42L249.375 201.828C249.399 201.793 249.394 201.744 249.359 201.717C249.328 201.692 249.28 201.7 249.256 201.735L247.497 204.327C247.476 204.363 247.481 204.412 247.515 204.437L247.542 204.452Z" fill="#F07162"/>
<path d="M248.313 205.209C248.342 205.217 248.374 205.204 248.392 205.176L250.069 202.505C250.093 202.467 250.083 202.418 250.051 202.395C250.017 202.369 249.969 202.379 249.948 202.415L248.271 205.088C248.247 205.124 248.255 205.173 248.289 205.198L248.313 205.209Z" fill="#F07162"/>
<path d="M249.245 205.693C249.274 205.701 249.306 205.688 249.325 205.66L250.721 203.395C250.742 203.357 250.734 203.308 250.697 203.284C250.665 203.259 250.618 203.27 250.596 203.306L249.2 205.572C249.179 205.608 249.187 205.658 249.221 205.682L249.245 205.693Z" fill="#F07162"/>
<path d="M257.029 217.195C251.423 217.195 248.037 216.79 247.986 216.784L248.013 216.549C248.087 216.557 255.689 217.464 267.023 216.548L267.039 216.785C263.237 217.092 259.851 217.195 257.029 217.195Z" fill="#21111D"/>
<path d="M249.097 195.44L248.874 195.432L249.171 185.348L249.393 185.356L249.097 195.44Z" fill="#21111D"/>
<path d="M267.834 197.033L263.446 186.183L263.648 186.087L268.038 196.939L267.834 197.033Z" fill="#21111D"/>
<path d="M267.169 197.419L266.679 194.167L266.899 194.129L267.387 197.381L267.169 197.419Z" fill="#21111D"/>
<path d="M255.623 172.4C255.638 172.4 255.652 172.39 255.657 172.373C255.665 172.353 255.652 172.329 255.633 172.323L254.894 172.06L255.13 170.194C255.13 170.172 255.116 170.151 255.098 170.148C255.077 170.145 255.058 170.161 255.056 170.183L254.814 172.115L255.609 172.399L255.623 172.4Z" fill="#F07162"/>
<path d="M256.195 173.17C256.171 173.166 254.735 173.131 254.735 173.131C254.735 173.131 254.915 173.769 255.448 173.783C255.983 173.799 256.195 173.17 256.195 173.17Z" fill="#FBFDFC"/>
<path d="M225.453 188.1H243.019L249.145 204.852H231.578L225.453 188.1Z" fill="#FECC86"/>
<path d="M249.145 204.852H248.228L242.102 188.1H243.019L249.145 204.852Z" fill="#FFB357"/>
<path d="M236.938 195.942C237.182 196.712 237.002 197.473 236.538 197.641C236.074 197.811 235.502 197.325 235.258 196.554C235.014 195.784 235.192 195.023 235.656 194.855C236.119 194.685 236.694 195.173 236.938 195.942Z" fill="#E2F2F1"/>
<path d="M254.952 203.499H248.389V204.852H254.952C255.299 204.852 255.583 204.549 255.583 204.176C255.583 203.803 255.299 203.499 254.952 203.499Z" fill="#FFB357"/>
<path d="M249.145 204.176H253.291V203.963H249.145V204.176Z" fill="#FECC86"/>
<path d="M246.672 207.819H254.402V204.852H246.672V207.819Z" fill="#49263E"/>
<path d="M9.78711 250.489H299.244V249.528H9.78711V250.489Z" fill="#21111D"/>
<path d="M56.5585 247.139L49.4635 247.243L49.3618 240.058L56.429 239.109L56.5585 247.139Z" fill="#FE9F73"/>
<path d="M63.8486 248.432H49.3618V245.302C49.3618 245.302 50.4157 243.8 52.0202 244.567C52.0202 244.567 54.3951 246.413 56.5343 244.206L61.8985 246.678C61.8985 246.678 63.8486 247.367 63.8486 248.432Z" fill="#33192C"/>
<path d="M49.3618 249.528H64.1858C64.347 249.528 64.4776 249.388 64.4776 249.215V248.745C64.4776 248.572 64.347 248.432 64.1858 248.432H49.3618V249.528Z" fill="#472A31"/>
<path d="M58.1219 244.938C57.6358 245.752 56.6601 247.391 56.0391 248.432H55.0518C55.6065 247.501 56.7688 245.551 57.3472 244.581L58.1219 244.938Z" fill="#D7E4F7"/>
<path d="M57.6226 248.432H56.6353C57.0865 247.674 57.9662 246.199 58.5892 245.155L59.364 245.51C58.8406 246.389 58.1151 247.605 57.6226 248.432Z" fill="#D7E4F7"/>
<path d="M44.3427 247.139L37.2477 247.243L37.146 240.058L44.2132 239.109L44.3427 247.139Z" fill="#FE9F73"/>
<path d="M45.0985 184.942C45.3333 192.362 46.3552 221.388 48.5038 240.377C48.6453 241.629 49.6334 242.573 50.8077 242.57C52.1076 242.566 53.9159 242.399 55.9191 241.743C56.8878 241.426 57.5602 240.479 57.5764 239.393L58.45 181.609C58.4522 181.469 58.4434 181.329 58.4233 181.19L58.3825 180.905C58.1575 179.332 56.6369 178.384 55.2535 178.955L46.5875 182.529C45.6628 182.91 45.0651 183.879 45.0985 184.942Z" fill="#33192C"/>
<path d="M35.5692 183.444C35.5692 183.444 34.9792 219.137 36.5172 241.152C36.59 242.195 37.3605 243.019 38.3307 243.098C39.7042 243.209 41.7962 243.192 44.1542 242.521C44.954 242.292 45.5362 241.551 45.6073 240.666L49.7212 189.48L52.2542 175.268L35.5692 183.444Z" fill="#49263E"/>
<path d="M32.9233 172.085C33.0684 173.51 33.8635 194.664 36.0738 196.409C38.2837 198.155 59.431 196.477 59.9235 194.416C60.416 192.352 57.5457 170.247 57.5457 170.247L32.9233 172.085Z" fill="#FFB357"/>
<path d="M56.8008 162.118C57.0866 162.125 68.3962 167.845 68.3962 167.845L65.9318 172.514L59.539 170.759L56.8008 162.118Z" fill="#FFB357"/>
<path d="M40.8726 139.421C40.8726 139.421 35.9981 139.059 33.6231 140.391C30.0791 142.379 30.9331 154.538 30.9331 154.538C30.9331 154.538 33.9424 152.916 34.1399 152.346C34.3373 151.776 40.8726 139.421 40.8726 139.421Z" fill="#FFB357"/>
<path d="M36.1189 140.195C38.9054 139.883 46.2338 139.867 46.2338 139.867C46.2338 139.867 47.1948 140.176 46.891 140.011C54.9248 141.839 55.614 148.307 55.614 148.307L58.9686 167.048L63.3511 167.464C64.6802 170.408 63.3891 178.168 63.3891 178.168L42.0418 179.962C42.0418 179.962 37.4196 180.608 33.7021 175.111C31.2423 171.476 30.7128 160.571 30.9659 152.624C30.9659 152.624 31.7879 140.678 36.1189 140.195Z" fill="#FFB357"/>
<path d="M42.4318 166.765C42.4557 166.776 42.4825 166.779 42.5096 166.774C42.5825 166.759 42.6296 166.681 42.6152 166.604C42.5962 166.502 40.6954 156.275 39.9526 149.857C39.9431 149.777 39.8759 149.722 39.8027 149.731C39.7291 149.741 39.6767 149.813 39.6862 149.892C40.43 156.321 42.3325 166.559 42.3516 166.661C42.3607 166.71 42.3917 166.748 42.4318 166.765Z" fill="#21111D"/>
<path d="M55.606 167.006C55.5842 167.028 55.5561 167.041 55.5247 167.043C55.4505 167.047 55.3871 166.987 55.3829 166.906C55.3765 166.789 54.7422 155.022 54.1012 151.127C54.0882 151.048 54.1371 150.972 54.21 150.96C54.2832 150.946 54.3529 150.998 54.3659 151.077C55.0097 154.988 55.6451 166.771 55.6511 166.889C55.6536 166.936 55.6356 166.978 55.606 167.006Z" fill="#21111D"/>
<path d="M57.2205 164.456C57.2796 164.483 57.3504 164.461 57.3859 164.399L58.3399 162.774L58.3297 162.717L55.7463 148.285C55.7319 148.156 55.5214 146.477 54.2622 144.589C53.082 142.819 50.7158 140.535 46.1475 139.711C46.0743 139.698 46.0049 139.752 45.9926 139.831C45.9803 139.908 46.0299 139.984 46.1031 139.996C50.5729 140.802 52.8834 143.023 54.0348 144.743C55.2827 146.608 55.4781 148.307 55.4798 148.325L55.4816 148.336L58.0561 162.717L57.1585 164.246C57.1191 164.312 57.1374 164.402 57.2004 164.445L57.2205 164.456Z" fill="#21111D"/>
<path d="M38.8536 165.672L38.8712 165.678L42.4338 166.693C42.5057 166.713 42.5792 166.667 42.5979 166.59C42.6169 166.513 42.5746 166.434 42.5025 166.414L38.9398 165.399C38.8684 165.379 38.7945 165.426 38.7755 165.502C38.7582 165.573 38.7924 165.645 38.8536 165.672Z" fill="#21111D"/>
<path d="M61.9737 164.683C62.0413 164.712 62.1191 164.68 62.1483 164.607C62.1782 164.534 62.1476 164.449 62.0796 164.416L58.2523 162.613C58.1815 162.583 58.1048 162.615 58.0749 162.687C58.045 162.76 58.0759 162.844 58.1439 162.878L61.9712 164.681L61.9737 164.683Z" fill="#21111D"/>
<path d="M77.8369 178.335L65.2559 177.448C64.6585 177.405 64.1555 176.835 64.2252 176.281L66.7315 156.386C66.7822 155.982 67.125 155.72 67.5576 155.749L80.139 156.638C80.736 156.68 81.239 157.25 81.1693 157.805L78.6634 177.7C78.6124 178.104 78.2699 178.366 77.8369 178.335Z" fill="#7FC6A6"/>
<path d="M71.7388 174.163C71.7519 173.791 71.453 173.466 71.1073 173.441L68.9682 173.289C68.9013 173.284 68.8443 173.233 68.8267 173.162C68.801 173.06 68.8693 172.958 68.9686 172.95L72.1348 172.725C72.4974 172.699 72.7171 172.37 72.6227 171.993C72.5284 171.616 72.1546 171.329 71.792 171.354L68.5627 171.584C68.4877 171.589 68.4198 171.537 68.4004 171.458L68.3867 171.403C68.3638 171.314 68.4138 171.221 68.4979 171.197L71.9595 170.198C72.2943 170.102 72.5284 169.721 72.4485 169.359C72.364 168.975 72.0014 168.744 71.6494 168.845L68.1614 169.852C68.0776 169.875 67.991 169.824 67.9685 169.732L67.9249 169.557C67.9044 169.475 67.9435 169.39 68.0164 169.357L71.1119 167.981C71.4319 167.837 71.6181 167.428 71.4949 167.08C71.365 166.711 70.9778 166.533 70.6409 166.683C70.6409 166.683 65.8801 168.493 65.1032 168.713L66.5348 167.993C67.5887 169.055 66.3993 167.606 65.5323 167.419C64.5717 167.212 62.0341 169.734 62.0341 169.734C61.9172 169.951 62.0372 170.436 62.2206 170.802C62.9285 174.838 63.0686 175.454 63.353 176.525L67.2642 175.243C68.3927 174.873 69.5747 174.727 70.7518 174.812L71.0475 174.833C71.4115 174.859 71.7255 174.558 71.7388 174.163Z" fill="#FE9F73"/>
<path d="M74.5857 163.459C74.5821 164.195 74.0439 164.81 73.3843 164.837C72.7236 164.862 72.1913 164.289 72.1948 163.553C72.1984 162.82 72.7362 162.202 73.3966 162.177C74.057 162.15 74.5892 162.725 74.5857 163.459Z" fill="white"/>
<path d="M65.5757 167.137L65.3979 168.619L66.8669 168.093L66.8475 167.02L65.5757 167.137Z" fill="#7FC6A6"/>
<path d="M80.14 156.493L67.5583 155.604C67.063 155.57 66.6603 155.886 66.6012 156.357L65.0854 168.737L65.3977 168.62L66.8617 156.414C66.9036 156.081 67.1894 155.869 67.5569 155.894L80.1382 156.783C80.2107 156.787 80.2702 156.727 80.2706 156.647C80.2709 156.566 80.2121 156.499 80.14 156.493Z" fill="#21111D"/>
<path d="M63.3505 167.464C63.3505 167.464 64.6409 171.073 63.3885 178.168L62.135 173.07L60.0444 169.751L63.3505 167.464Z" fill="#FFB357"/>
<path d="M37.7893 166.724C37.8051 166.732 37.8224 166.735 37.8403 166.735C38.0329 166.736 57.0527 166.818 63.2519 167.598C63.3906 168.041 64.0203 170.331 63.6926 174.467C63.6862 174.545 63.7405 174.616 63.8147 174.623C63.8887 174.629 63.9541 174.571 63.9605 174.49C64.3315 169.804 63.5106 167.507 63.4754 167.412L63.4462 167.332L63.3666 167.321C57.2403 166.532 38.035 166.447 37.8414 166.447C37.7671 166.447 37.7069 166.511 37.7065 166.59C37.7062 166.65 37.7403 166.702 37.7893 166.724Z" fill="#21111D"/>
<path d="M45.5459 179.477C53.3126 179.477 62.8195 178.401 63.4056 178.335C63.4911 178.324 63.5534 178.242 63.5446 178.149C63.5355 178.058 63.4615 177.99 63.3718 177.999C63.1602 178.025 42.1213 180.406 36.837 178.182C31.6143 175.983 31.2496 163.626 31.2464 163.502C31.2443 163.409 31.1722 163.334 31.0859 163.339C30.9997 163.341 30.931 163.418 30.9332 163.511C30.9462 164.029 31.307 176.215 36.7229 178.494C38.4643 179.228 41.8031 179.477 45.5459 179.477Z" fill="#21111D"/>
<path d="M41.0359 126.544C41.0359 126.544 39.19 127.568 40.1129 131.567L40.8109 131.179L40.5755 129.056L41.0359 126.544Z" fill="#21111D"/>
<path d="M47.5024 129.026V134.887C47.5024 134.887 47.5792 136.867 45.9747 137.116L46.2743 139.759C46.3859 140.741 45.842 141.681 44.9687 141.979C44.5417 142.125 44.032 142.233 43.454 142.233C41.6208 142.233 40.6274 140.747 40.475 140.004C40.3223 139.261 40.7806 135.712 40.7806 135.712L40.7249 133.967L40.933 127.21L47.5024 129.026Z" fill="#FE9F73"/>
<path d="M43.0765 131.956C43.0575 131.956 43.0382 131.948 43.0234 131.932C42.9931 131.9 42.9921 131.849 43.0213 131.816C43.0318 131.804 44.0826 130.644 45.0428 131.479C45.0756 131.507 45.0808 131.559 45.0544 131.595C45.0277 131.631 44.9795 131.636 44.9467 131.608C44.0959 130.867 43.1705 131.886 43.1318 131.931C43.1167 131.948 43.0966 131.956 43.0765 131.956Z" fill="#21111D"/>
<path d="M46.2259 131.461C46.2044 131.461 46.183 131.452 46.1682 131.433C46.1404 131.398 46.1439 131.346 46.1759 131.316C46.2065 131.287 46.9352 130.614 47.3956 131.041C47.428 131.07 47.4315 131.123 47.4044 131.157C47.3766 131.192 47.3284 131.195 47.2964 131.165C46.9356 130.831 46.2822 131.434 46.2759 131.441C46.2611 131.453 46.2435 131.461 46.2259 131.461Z" fill="#21111D"/>
<path d="M44.6214 132.29C44.6214 132.427 44.5186 132.537 44.3923 132.537C44.2655 132.537 44.1631 132.427 44.1631 132.29C44.1631 132.153 44.2655 132.043 44.3923 132.043C44.5186 132.043 44.6214 132.153 44.6214 132.29Z" fill="black"/>
<path d="M47.0575 132.043C47.0575 132.179 46.9547 132.29 46.8279 132.29C46.7016 132.29 46.5991 132.179 46.5991 132.043C46.5991 131.905 46.7016 131.793 46.8279 131.793C46.9547 131.793 47.0575 131.905 47.0575 132.043Z" fill="black"/>
<path d="M41.9476 132.375C41.9476 133.195 41.332 133.861 40.573 133.861C39.8134 133.861 39.1978 133.195 39.1978 132.375C39.1978 131.554 39.8134 130.89 40.573 130.89C41.332 130.89 41.9476 131.554 41.9476 132.375Z" fill="#FE9F73"/>
<path d="M40.4712 133.285C40.1854 133.285 39.9946 133.054 39.9319 132.822C39.8573 132.548 39.9425 132.282 40.1488 132.143C40.4532 131.938 40.7292 132.069 40.8707 132.17C40.8112 132.002 40.7183 131.879 40.5933 131.805C40.3223 131.644 39.9861 131.761 39.9826 131.762C39.9629 131.77 39.9411 131.757 39.9344 131.735C39.9281 131.715 39.9386 131.691 39.9587 131.683C39.9738 131.679 40.3286 131.554 40.6296 131.732C40.8028 131.834 40.9211 132.017 40.9802 132.274L41.0133 132.417L40.9161 132.313C40.9024 132.297 40.5754 131.954 40.1889 132.214C39.9752 132.358 39.9562 132.619 40.0051 132.799C40.0558 132.986 40.2082 133.204 40.4705 133.204H40.4786C40.4994 133.204 40.5166 133.222 40.517 133.244C40.5173 133.266 40.5001 133.285 40.4793 133.285H40.4712Z" fill="#F07162"/>
<path d="M47.7687 133.954C47.7687 133.954 48.2685 137.924 45.8295 138.064C42.3397 138.265 42.0018 136.114 41.7945 134.353L41.7593 130.718L41.8716 129.662C42.118 129.965 42.2686 130.343 42.3021 130.743C42.3739 131.616 42.5527 133.964 42.7544 134.068C43.0381 134.214 47.2256 133.572 47.7687 133.954Z" fill="#21111D"/>
<path d="M45.4298 133.959C45.4136 133.959 45.3989 133.95 45.3936 133.933C45.3869 133.91 45.3978 133.887 45.4179 133.879L46.1838 133.606L45.9416 131.658C45.9385 131.636 45.9536 131.616 45.9744 131.613C45.9955 131.609 46.0145 131.625 46.0173 131.649L46.2676 133.663L45.4418 133.958L45.4298 133.959Z" fill="#F07162"/>
<path d="M44.8364 134.764C44.86 134.759 46.349 134.721 46.349 134.721C46.349 134.721 46.1621 135.386 45.6087 135.402C45.0554 135.418 44.8364 134.764 44.8364 134.764Z" fill="#FBFDFC"/>
<path d="M41.8643 129.73L41.174 129.056L40.4595 130.899C40.4595 130.899 41.3426 131.056 41.3581 132.043C41.3733 133.028 40.8776 134.567 42.4684 136.78C44.0587 138.993 42.3399 133.477 42.3247 133.285C42.3096 133.095 41.8643 129.73 41.8643 129.73Z" fill="#21111D"/>
<path d="M41.0356 126.544C41.7716 125.76 44.3261 125.312 46.1485 126.492L46.1488 126.489C48.2239 127.581 47.572 129.798 47.5033 129.864L47.4762 129.842C47.4868 129.894 47.4963 129.944 47.5033 129.997C47.5033 129.997 47.416 129.847 47.2295 129.639L46.4135 128.968C45.9563 128.693 45.3427 128.453 44.5493 128.398C43.7612 128.343 43.0733 128.39 42.5084 128.576C42.3591 129.08 42.2377 130.077 42.413 132.043C42.6805 135.038 41.4615 131.403 41.0183 130.012C40.9229 130.272 40.854 130.563 40.8191 130.899C40.8191 130.899 39.5596 128.117 41.0356 126.544Z" fill="#21111D"/>
<path d="M47.5029 130.672C47.5029 130.672 47.5575 129.469 47.5039 129.206C47.4501 128.941 44.9561 128.185 43.5907 128.387C42.2253 128.587 44.872 130.203 44.9026 130.203C44.9333 130.203 47.5029 130.672 47.5029 130.672Z" fill="#FE9F73"/>
<path d="M42.7699 128.695L41.4502 127.377L42.6931 129.305L42.7699 128.695Z" fill="#FE9F73"/>
<path d="M42.7696 126.1C42.7696 126.1 43.0382 123.258 41.565 123.876C40.0919 124.493 39.8391 125.803 41.1739 126.668C42.5087 127.533 42.7696 126.1 42.7696 126.1Z" fill="#21111D"/>
<path d="M37.3364 145.502L39.9367 140.82L44.5061 142.3L46.359 140.183C46.359 140.183 46.7536 142.14 46.742 142.3C46.7304 142.463 44.6543 144.779 44.3874 144.754C44.1206 144.729 37.3364 145.502 37.3364 145.502Z" fill="#FFB357"/>
<path d="M37.7069 197.075C37.7882 197.075 37.8569 197.008 37.8625 196.92C37.8688 196.827 37.8041 196.746 37.7178 196.74C35.5241 196.572 35.2228 194.569 34.7237 191.25C34.6342 190.655 34.5413 190.037 34.4297 189.374C33.6867 184.967 33.3596 174.289 33.3565 174.181C33.354 174.09 33.2847 174.019 33.2002 174.019H33.1953C33.1087 174.022 33.0407 174.099 33.0435 174.192C33.0467 174.299 33.3748 185.002 34.1214 189.434C34.2326 190.094 34.3252 190.71 34.4146 191.305C34.9204 194.668 35.2548 196.888 37.6953 197.075H37.7069Z" fill="#21111D"/>
<path d="M46.0841 138.077L46.2731 139.735C46.2731 139.735 45.1425 141.557 44.3688 142.14C42.8344 140.996 40.4594 139.399 40.4594 139.399L40.5985 137.303C37.7501 136.955 34.507 138.876 35.2491 139.867C35.9911 140.858 39.8487 141.162 40.8727 141.522C41.8826 141.878 44.4631 142.719 44.4631 142.719C45.1415 142.178 46.9634 139.88 46.9634 139.88L48.8072 140.43C48.8428 138.419 46.0841 138.077 46.0841 138.077Z" fill="#FD7583"/>
<path d="M51.6327 248.432H37.146V245.302C37.146 245.302 38.1999 243.8 39.804 244.567C39.804 244.567 42.1793 246.413 44.3184 244.206L49.6823 246.678C49.6823 246.678 51.6327 247.367 51.6327 248.432Z" fill="#49263E"/>
<path d="M37.146 249.528H51.97C52.1312 249.528 52.2621 249.388 52.2621 249.215V248.745C52.2621 248.572 52.1312 248.432 51.97 248.432H37.146V249.528Z" fill="#683D46"/>
<path d="M45.9066 244.938C45.4205 245.752 44.4447 247.391 43.8238 248.432H42.8364C43.3908 247.501 44.5535 245.551 45.1322 244.581L45.9066 244.938Z" fill="#D7E4F7"/>
<path d="M45.4073 248.432H44.4199C44.8712 247.674 45.7508 246.199 46.3739 245.155L47.1483 245.51C46.6252 246.389 45.9001 247.605 45.4073 248.432Z" fill="#D7E4F7"/>
<path d="M44.4633 142.831C44.49 142.831 44.5175 142.82 44.5379 142.798L47.7556 139.287C47.7964 139.243 47.7957 139.172 47.7545 139.128C47.7137 139.086 47.6475 139.086 47.6067 139.13L44.389 142.641C44.3485 142.684 44.3489 142.755 44.39 142.8C44.4105 142.82 44.4369 142.831 44.4633 142.831Z" fill="black"/>
<path d="M128.701 172.305C128.701 162.988 121.668 155.436 112.993 155.436C104.316 155.436 97.2822 162.988 97.2822 172.305C97.2822 176.925 99.0134 181.112 101.816 184.159H101.816C101.816 184.159 106.57 189.618 108.176 195.569C108.176 195.569 110.92 196.57 112.993 196.625C115.063 196.57 117.808 195.569 117.808 195.569C119.414 189.618 124.167 184.159 124.167 184.159C126.97 181.112 128.701 176.925 128.701 172.305Z" fill="#FECC86"/>
<path d="M107.751 194.224V198.735C107.751 200.768 108.919 202.508 110.572 203.226C110.739 204.5 111.756 205.482 112.988 205.482C114.221 205.482 115.238 204.5 115.403 203.226C117.058 202.508 118.225 200.768 118.225 198.735V194.224H107.751Z" fill="#4CB7D8"/>
<path d="M118.226 194.225V194.223C119.15 191.571 120.599 189.098 121.834 187.267H121.835C120.599 189.098 119.15 191.573 118.226 194.225Z" fill="#DEE9D8"/>
<path d="M121.835 187.267H121.833C123.008 185.527 123.991 184.365 124.147 184.184C123.991 184.365 123.01 185.525 121.835 187.267Z" fill="#D4E0D1"/>
<path d="M124.147 184.183C124.148 184.182 124.15 184.182 124.15 184.18C124.15 184.182 124.148 184.182 124.147 184.183ZM124.151 184.179C124.151 184.179 124.151 184.179 124.153 184.177C124.151 184.179 124.151 184.179 124.151 184.179ZM124.153 184.177C124.153 184.177 124.153 184.177 124.154 184.177C124.153 184.177 124.153 184.177 124.153 184.177ZM124.156 184.174C124.157 184.172 124.159 184.17 124.16 184.169C124.159 184.17 124.157 184.172 124.156 184.174ZM124.16 184.169C124.162 184.167 124.162 184.167 124.163 184.165C124.162 184.165 124.162 184.167 124.16 184.169ZM124.163 184.165V184.164V184.165ZM124.165 184.162C124.165 184.162 124.165 184.162 124.166 184.162C124.165 184.162 124.165 184.162 124.165 184.162ZM124.167 184.161C124.167 184.159 124.167 184.159 124.167 184.159C124.167 184.159 124.167 184.159 124.167 184.161Z" fill="#D4E0D1"/>
<path d="M128.702 172.268C128.702 172.265 128.702 172.262 128.702 172.26C128.702 172.262 128.702 172.265 128.702 172.268ZM128.702 172.225C128.702 172.225 128.702 172.224 128.702 172.222C128.702 172.224 128.702 172.225 128.702 172.225ZM128.702 172.188C128.702 172.185 128.702 172.181 128.702 172.178C128.702 172.181 128.702 172.185 128.702 172.188ZM128.702 172.147C128.702 172.145 128.702 172.143 128.702 172.142C128.702 172.143 128.702 172.145 128.702 172.147ZM128.702 172.106C128.702 172.104 128.702 172.101 128.702 172.098C128.702 172.101 128.702 172.104 128.702 172.106ZM128.7 172.065C128.7 172.063 128.7 172.063 128.7 172.061C128.7 172.063 128.7 172.063 128.7 172.065ZM128.7 172.025C128.7 172.022 128.7 172.02 128.7 172.017C128.7 172.019 128.7 172.022 128.7 172.025ZM128.699 171.984C128.699 171.984 128.699 171.981 128.699 171.98C128.699 171.981 128.699 171.983 128.699 171.984ZM128.699 171.943C128.699 171.942 128.699 171.938 128.699 171.937C128.699 171.938 128.699 171.942 128.699 171.943ZM128.697 171.904C128.697 171.903 128.697 171.901 128.697 171.899C128.697 171.901 128.697 171.903 128.697 171.904ZM128.697 171.863C128.697 171.861 128.697 171.86 128.697 171.858C128.697 171.86 128.697 171.861 128.697 171.863ZM128.696 171.822C128.696 171.822 128.696 171.821 128.696 171.819C128.696 171.821 128.696 171.822 128.696 171.822ZM128.694 171.781C128.694 171.781 128.694 171.78 128.694 171.778C128.694 171.78 128.694 171.781 128.694 171.781ZM128.694 171.742C128.694 171.742 128.693 171.74 128.693 171.738C128.693 171.74 128.694 171.742 128.694 171.742ZM128.693 171.701V171.699V171.701ZM128.691 171.661V171.66V171.661ZM128.688 171.581V171.579C128.688 171.579 128.688 171.579 128.688 171.581Z" fill="#D4E0D1"/>
<path d="M118.226 194.224H107.884C107.763 193.858 107.706 193.713 107.583 193.409L107.517 193.241C106.451 190.571 104.916 188.13 103.719 186.44C114.17 183.255 121.445 175.145 126.026 163.111C126.033 163.122 126.041 163.133 126.047 163.144L126.145 163.076C127.633 165.518 128.549 168.4 128.683 171.499C128.685 171.526 128.686 171.553 128.688 171.579V171.581C128.688 171.606 128.689 171.633 128.691 171.66V171.661C128.691 171.674 128.691 171.687 128.693 171.699V171.701C128.693 171.714 128.693 171.726 128.693 171.739C128.693 171.74 128.694 171.742 128.694 171.742C128.694 171.754 128.694 171.765 128.694 171.778C128.694 171.78 128.694 171.781 128.694 171.781C128.695 171.794 128.695 171.806 128.695 171.819C128.695 171.821 128.695 171.822 128.695 171.822C128.695 171.835 128.695 171.846 128.697 171.858C128.697 171.86 128.697 171.861 128.697 171.863C128.697 171.874 128.697 171.888 128.697 171.899C128.697 171.901 128.697 171.903 128.697 171.904C128.698 171.915 128.698 171.926 128.698 171.937C128.698 171.938 128.698 171.942 128.698 171.943C128.698 171.956 128.698 171.969 128.698 171.98C128.698 171.981 128.698 171.984 128.698 171.984C128.7 171.996 128.7 172.006 128.7 172.017C128.7 172.021 128.7 172.022 128.7 172.025C128.7 172.036 128.7 172.049 128.7 172.061C128.7 172.063 128.7 172.063 128.7 172.065C128.7 172.076 128.7 172.087 128.701 172.098C128.701 172.101 128.701 172.104 128.701 172.106C128.701 172.118 128.701 172.129 128.701 172.142C128.701 172.143 128.701 172.145 128.701 172.147C128.701 172.158 128.701 172.167 128.701 172.178C128.701 172.181 128.701 172.185 128.701 172.188C128.701 172.199 128.701 172.211 128.701 172.222C128.701 172.224 128.701 172.225 128.701 172.225C128.701 172.236 128.701 172.247 128.701 172.26C128.701 172.262 128.701 172.265 128.701 172.268C128.701 172.281 128.701 172.293 128.701 172.304C128.701 172.313 128.701 172.325 128.701 172.334C128.697 175.433 127.912 178.338 126.548 180.833C125.885 182.047 125.083 183.164 124.167 184.159C124.167 184.159 124.167 184.159 124.167 184.161C124.167 184.161 124.166 184.161 124.166 184.162C124.164 184.162 124.164 184.162 124.164 184.162C124.164 184.164 124.164 184.164 124.163 184.164V184.165C124.162 184.167 124.162 184.167 124.16 184.169C124.159 184.17 124.157 184.172 124.156 184.173C124.154 184.175 124.154 184.175 124.154 184.177C124.153 184.177 124.153 184.177 124.153 184.177C124.151 184.178 124.151 184.178 124.151 184.178C124.151 184.18 124.151 184.18 124.15 184.18C124.15 184.181 124.148 184.181 124.147 184.183V184.184C123.992 184.365 123.009 185.526 121.834 187.267C120.599 189.098 119.15 191.571 118.226 194.224Z" fill="#FEC073"/>
<path d="M115.452 170.321C114.975 171.496 115.088 173.34 115.519 174.04C115.688 174.314 115.813 174.269 115.86 174.254C116.364 174.079 116.803 173.194 116.65 172.151C116.534 171.361 116.115 170.737 115.452 170.321ZM110.26 170.321C109.597 170.737 109.177 171.361 109.061 172.151C108.91 173.194 109.347 174.079 109.852 174.254C109.899 174.269 110.023 174.314 110.193 174.04C110.623 173.34 110.736 171.496 110.26 170.321ZM115.559 194.289L115.109 194.159C115.123 194.1 116.589 188.316 117.605 182.392C119.368 172.112 118.355 169.931 117.593 169.546C116.815 169.152 116.203 169.223 115.773 169.756C115.742 169.795 115.713 169.836 115.684 169.878C116.782 170.573 117.048 171.641 117.111 172.074C117.285 173.268 116.788 174.459 116.002 174.729C115.813 174.796 115.446 174.829 115.131 174.315C114.628 173.5 114.471 171.46 115.034 170.101C114.493 169.863 113.836 169.737 113.083 169.737H112.629C111.876 169.737 111.219 169.863 110.679 170.101C111.241 171.46 111.084 173.5 110.582 174.315C110.265 174.829 109.9 174.796 109.709 174.729C108.923 174.459 108.428 173.268 108.601 172.074C108.664 171.641 108.931 170.573 110.028 169.878C110 169.836 109.969 169.795 109.938 169.756C109.51 169.223 108.897 169.152 108.119 169.546C107.358 169.931 106.344 172.112 108.106 182.392C109.123 188.316 110.588 194.1 110.603 194.159L110.154 194.289C110.138 194.233 108.668 188.43 107.649 182.485C106.241 174.277 106.33 169.897 107.92 169.093C109.155 168.47 109.89 168.932 110.29 169.428C110.348 169.497 110.399 169.573 110.449 169.65C110.999 169.4 111.709 169.236 112.629 169.236H113.083C114.003 169.236 114.714 169.4 115.263 169.65C115.312 169.573 115.365 169.497 115.421 169.428C115.821 168.932 116.558 168.47 117.791 169.093C119.381 169.897 119.47 174.277 118.062 182.485C117.043 188.43 115.574 194.233 115.559 194.289Z" fill="#F99247"/>
<path d="M107.675 194.342C107.549 193.957 107.494 193.817 107.369 193.508L107.303 193.34C105.341 188.421 101.767 184.285 101.731 184.244L101.719 184.231C98.7828 181.031 97.166 176.798 97.166 172.304C97.166 162.934 104.265 155.31 112.992 155.31C118.35 155.31 123.303 158.187 126.242 163.007L126.047 163.144C123.151 158.396 118.271 155.56 112.992 155.56C104.394 155.56 97.3987 163.072 97.3987 172.304C97.3987 176.738 98.9971 180.917 101.899 184.071L102.051 184.236L102.04 184.238C102.725 185.06 105.761 188.838 107.517 193.241L107.583 193.409C107.709 193.722 107.768 193.866 107.896 194.259L107.675 194.342Z" fill="#21111D"/>
<path d="M102.02 164.516L101.797 164.446C101.808 164.405 102.97 160.252 106.878 158.691L106.959 158.926C103.164 160.443 102.032 164.477 102.02 164.516Z" fill="#21111D"/>
<path d="M102.741 166.019L102.518 165.947C102.528 165.907 103.69 161.755 107.598 160.193L107.68 160.427C103.884 161.944 102.752 165.977 102.741 166.019Z" fill="#21111D"/>
<path d="M113.559 203.703H112.417C109.78 203.703 107.634 201.399 107.634 198.567V194.099H118.226V194.349H107.868V198.567C107.868 201.26 109.909 203.453 112.417 203.453H113.559C114.76 203.453 115.894 202.953 116.75 202.05L116.913 202.227C116.012 203.179 114.821 203.703 113.559 203.703Z" fill="#21111D"/>
<path d="M113.055 205.607C110.786 205.607 110.458 203.244 110.455 203.22L110.687 203.185C110.698 203.276 111 205.409 113.131 205.357L113.138 205.607C113.11 205.607 113.083 205.607 113.055 205.607Z" fill="#21111D"/>
<path d="M123.764 181.748L123.626 181.546C125.699 179.896 126.026 177.138 126.028 177.11L126.26 177.14C126.258 177.168 125.92 180.029 123.764 181.748Z" fill="#21111D"/>
<path d="M123.305 180.546L123.167 180.345C124.678 179.142 124.917 177.13 124.919 177.11L125.15 177.14C125.142 177.226 124.9 179.277 123.305 180.546Z" fill="#21111D"/>
<path d="M107.27 196.473L107.268 196.222C107.357 196.222 116.188 196.099 118.985 194.979L119.066 195.214C116.231 196.348 107.634 196.468 107.27 196.473Z" fill="#21111D"/>
<path d="M107.27 198.586L107.266 198.336C107.363 198.334 116.946 198.129 118.739 197.1L118.849 197.32C117.008 198.378 107.668 198.578 107.27 198.586Z" fill="#21111D"/>
<path d="M107.752 200.755L107.75 200.505C107.837 200.505 116.437 200.407 118.741 199.128L118.848 199.352C116.495 200.656 108.108 200.752 107.752 200.755Z" fill="#21111D"/>
<path d="M93.2772 169.649L93.2476 169.647L87.688 169.14C87.4958 169.123 87.3529 168.94 87.3695 168.734C87.3857 168.528 87.555 168.375 87.7472 168.392L93.3067 168.899C93.4989 168.918 93.6418 169.099 93.6253 169.306C93.6102 169.501 93.4574 169.649 93.2772 169.649Z" fill="#FECC86"/>
<path d="M96.1525 160.139C96.0849 160.139 96.0159 160.117 95.9554 160.073L91.3508 156.689C91.1917 156.573 91.1509 156.339 91.2596 156.168C91.3688 155.996 91.5863 155.952 91.7458 156.071L96.3507 159.454C96.5098 159.57 96.5503 159.804 96.4415 159.975C96.3736 160.082 96.2641 160.139 96.1525 160.139Z" fill="#FECC86"/>
<path d="M104.475 153.316C104.337 153.316 104.206 153.228 104.151 153.083L102.051 147.531C101.979 147.339 102.065 147.12 102.243 147.043C102.422 146.964 102.626 147.057 102.699 147.249L104.799 152.8C104.871 152.992 104.786 153.21 104.607 153.289C104.564 153.308 104.519 153.316 104.475 153.316Z" fill="#FECC86"/>
<path d="M132.426 170.73C132.244 170.73 132.091 170.578 132.079 170.38C132.066 170.173 132.212 169.994 132.404 169.981L137.972 169.586C138.163 169.573 138.33 169.729 138.343 169.936C138.356 170.143 138.209 170.321 138.018 170.335L132.45 170.729L132.426 170.73Z" fill="#FECC86"/>
<path d="M129.72 161.164C129.606 161.164 129.494 161.104 129.427 160.994C129.321 160.821 129.365 160.588 129.527 160.474L134.191 157.186C134.352 157.071 134.569 157.12 134.675 157.292C134.78 157.466 134.736 157.699 134.575 157.812L129.911 161.101C129.852 161.143 129.785 161.164 129.72 161.164Z" fill="#FECC86"/>
<path d="M122.597 153.294C122.551 153.294 122.505 153.284 122.459 153.264C122.281 153.182 122.199 152.962 122.275 152.771L124.473 147.265C124.549 147.074 124.754 146.986 124.932 147.066C125.109 147.148 125.191 147.369 125.115 147.559L122.918 153.067C122.861 153.209 122.732 153.294 122.597 153.294Z" fill="#FECC86"/>
<path d="M113.635 150.378H113.629C113.436 150.375 113.281 150.205 113.284 149.997L113.371 144.008C113.374 143.801 113.529 143.638 113.72 143.638H113.726C113.919 143.641 114.073 143.811 114.07 144.018L113.984 150.01C113.981 150.215 113.826 150.378 113.635 150.378Z" fill="#FECC86"/>
<path d="M122.309 164.717C121.476 164.717 120.371 164.329 119.305 163.59C117.518 162.353 116.515 160.608 117.065 159.692C117.287 159.323 117.728 159.143 118.291 159.143C119.126 159.143 120.23 159.534 121.297 160.271C123.083 161.508 124.087 163.254 123.536 164.169C123.315 164.539 122.874 164.717 122.309 164.717Z" fill="#F8E6C2"/>
<path d="M118.675 46.6H145.324C145.985 46.6 146.522 46.0239 146.522 45.3133V28.6546C146.522 27.944 145.985 27.3679 145.324 27.3679H118.675C118.013 27.3679 117.477 27.944 117.477 28.6546V45.3133C117.477 46.0239 118.013 46.6 118.675 46.6Z" fill="white"/>
<path d="M120.204 30.869H144.423C144.59 30.869 144.726 30.7235 144.726 30.5432C144.726 30.3633 144.59 30.2178 144.423 30.2178H120.204C120.036 30.2178 119.901 30.3633 119.901 30.5432C119.901 30.7235 120.036 30.869 120.204 30.869Z" fill="#61A3C5"/>
<path d="M120.204 34.5712H144.423C144.59 34.5712 144.726 34.4249 144.726 34.2454C144.726 34.0651 144.59 33.9192 144.423 33.9192H120.204C120.036 33.9192 119.901 34.0651 119.901 34.2454C119.901 34.4249 120.036 34.5712 120.204 34.5712Z" fill="#61A3C5"/>
<path d="M128.686 38.2725H144.423C144.59 38.2725 144.726 38.127 144.726 37.9467C144.726 37.7668 144.59 37.6208 144.423 37.6208H128.686C128.519 37.6208 128.383 37.7668 128.383 37.9467C128.383 38.127 128.519 38.2725 128.686 38.2725Z" fill="#61A3C5"/>
<path d="M120.024 38.2725H126.304C126.472 38.2725 126.607 38.127 126.607 37.9467C126.607 37.7668 126.472 37.6208 126.304 37.6208H120.024C119.857 37.6208 119.721 37.7668 119.721 37.9467C119.721 38.127 119.857 38.2725 120.024 38.2725Z" fill="#61A3C5"/>
<path d="M134.531 41.9739H144.423C144.59 41.9739 144.727 41.828 144.727 41.6481C144.727 41.4682 144.59 41.3223 144.423 41.3223H134.531C134.365 41.3223 134.228 41.4682 134.228 41.6481C134.228 41.828 134.365 41.9739 134.531 41.9739Z" fill="#61A3C5"/>
<path d="M120.024 41.9739H132.314C132.481 41.9739 132.617 41.828 132.617 41.6481C132.617 41.4682 132.481 41.3223 132.314 41.3223H120.024C119.857 41.3223 119.721 41.4682 119.721 41.6481C119.721 41.828 119.857 41.9739 120.024 41.9739Z" fill="#61A3C5"/>
<path d="M126.357 45.7497C126.327 45.8786 121.651 52.4129 121.621 52.2197C121.592 52.0266 122.16 45.2024 122.16 45.2024L126.357 45.7497Z" fill="white"/>
<path d="M68.3965 242.247H115.143V241.852H68.3965V242.247Z" fill="#21111D"/>
<path d="M86.03 224.768L83.3671 224.627L80.7039 224.487L80.1861 220.337C78.6724 219.872 77.2187 219.143 75.8856 218.154L72.5697 220.357L70.7787 218.238L68.9881 216.116L71.355 212.788C70.5689 211.267 70.0342 209.641 69.7512 207.978L65.9556 207.019L66.0858 204.16L66.2161 201.3L70.0811 200.744C70.514 199.119 71.1941 197.558 72.1146 196.126L70.0621 192.565L72.0372 190.642L74.0123 188.719L77.1117 191.261C78.5285 190.417 80.0417 189.844 81.5906 189.539L82.4832 185.463L85.1465 185.604L87.8094 185.744L88.3276 189.894C89.8412 190.358 91.295 191.087 92.628 192.077L95.9439 189.873L97.7345 191.993L99.5255 194.115L97.1587 197.443C97.9447 198.964 98.4794 200.59 98.7624 202.253L102.558 203.212L102.427 206.071L102.297 208.931L98.4326 209.487C97.9996 211.112 97.3195 212.673 96.399 214.105L98.4516 217.666L96.4765 219.587L94.501 221.511L91.4016 218.97C89.9852 219.814 88.4719 220.388 86.9231 220.692L86.03 224.768ZM84.2542 194.375C81.8577 194.375 79.4532 195.294 77.5383 197.158C73.4459 201.142 73.1358 207.936 76.8466 212.33C78.821 214.669 81.5349 215.856 84.2598 215.856C86.6559 215.856 89.0604 214.936 90.975 213.073C95.0678 209.088 95.3775 202.295 91.667 197.901C89.6926 195.562 86.9787 194.375 84.2542 194.375Z" fill="#B1E2F3"/>
</svg>
